<mxfile host="app.diagrams.net" modified="2021-05-25T07:16:22.588Z" agent="5.0 (Windows NT 10.0; Win64; x64) AppleWebKit/537.36 (KHTML, like Gecko) Chrome/90.0.4430.212 Safari/537.36 Edg/90.0.818.66" etag="_wjuLGucEJofXMd3CqEp" version="14.7.0" type="github">
  <diagram id="-MSi0PEmWToUDRvhBb8d" name="Page-1">
    <mxGraphModel dx="1038" dy="553" grid="1" gridSize="10" guides="1" tooltips="1" connect="1" arrows="1" fold="1" page="1" pageScale="1" pageWidth="2339" pageHeight="3300" math="0" shadow="0">
      <root>
        <mxCell id="0" />
        <mxCell id="1" parent="0" />
        <mxCell id="SeTrlBmMuoS_znbA5Kq0-1" value="" style="shape=image;verticalLabelPosition=bottom;labelBackgroundColor=#ffffff;verticalAlign=top;aspect=fixed;imageAspect=0;image=data:image/png,iVBORw0KGgoAAAANSUhEUgAAAggAAAFcCAYAAACtC0YfAAAgAElEQVR4XuzdV6xc13k24O0uS1ahOlVJkSqkqEpJVO+9uMklsVPsOHGcdhUkF0GAJDdBEAS5yU2CH4GNxDKsSDYkq9PqvbKIlERJlEhRvfdiO05+PMv+mM3RKbOncObMfBsYnDOzV31Xed/1rfaR//3f//3fKp9EIBFIBBKBRCARSARqCHwkBULWh0QgEUgEEoFEIBFoRSAFQtaJRCARSAQSgUQgEfgQAikQslIkAolAIpAIJAKJQAqErAObB4H/+Z//qT7ykY+UTz7DhYBlR7/85S/LJx7/f+xjHysfZfbf//3fG8vOb977/eMf/3iW6XAVZ0lNlKkyUl75JAK9QCAtCL1AMcPYBAHk8uKLL1Y77bRTEsoQ1o2f//zn1Zo1a6rHH3+8kMkHH3xQPffcc9Xuu+9eLVq0qNpiiy2qZcuWVdtss00RCnvvvXcpzx133LE64IADqk9+8pMpEoaoXImDX/ziF9XDDz9cffrTny5llE8i0AsEUiD0AsUMIwXCDKoDBAIyWbt2bfWZz3ymCAXkv+2221b7779/tf3221dLly4tZPPGG29Uu+66a3m/xx57lHdhZZhBWR7ppKZAGOniHWjmUiAMFP7RjDwtCMNdrgTC008/XT377LPVe++9V4TCrFmziiA47LDDiuXn0ksvLe9YEVgQdtttt2rLLbesdt555+qjH/1oWhCGqIhTIAxRYYxYUlIgjFiBDkN2UiAMQylMngZTCqtXr64+9alPFcvAbbfdVtYYbLXVVkUgEAs33HBDEQPvvPNO9dprr5U57jlz5lRHHHFEWhCGrHhTIAxZgYxQclIgjFBhDktWUiAMS0lMnA5igBXBgjbWgFdeeaWsKzB1YP2B/3/2s5+V7wTCSy+9VP4nGLbeeuu0IAxZ8aZAGLICGaHkpEAYocIclqzUBcInPvGJYUlWpuPXCEx3eCrhUHfj//pulNyZMnxVKdaV5CLF4SubmZyiFAgzufSGNO0pEIa0YDJZI4tACoSRLdqBZiwFwkDhH83IUyCMZrlmroYXgRQIw1s2MzllKRBmcukNadpTIAxpwWSyRhaBFAgjW7QDzVgKhIHCP5qREwgWtlkhn2sQRrOMM1fDhQCB8Mgjj5RFpnlQ0nCVzUxOTQqEmVx6Q5p2q+Rff/31cvCOo3nzSQQSgf4iQCCsW7euCATbUfNJBHqBQAqEXqCYYWyCAIEQR/Pm2f1ZORKB/iMQx2cTCE7DzCcR6AUCKRB6gWKGsQkCzoXfsGHDximG3BY3eQWJS5DyYqsPY2R7ZVz65byGfCZHIASCcyoWLlyYUCUCPUEgBUJPYMxA6gi8//775XS+XXbZJS/2maJqIMBXX321YKRjTyG1KVjwcRcEXLbbbrtsZFMgQJQ/+eST5b6MxYsXJ1aJQE8QSIHQExgzkDoCTuFbtWpVteeee5bjfPOZGAGjY526C5OIqRQIHxYIzzzzTPlRXcpncgQIhEcffbSs+znooIMSqkSgJwikQOgJjBlIHYEYzVgsZRdDEt/E9cP0gouSWA9mz56dOLXAxIJgqsrjwqh8Jkcgtzlm7egHAikQ+oHqmIeZAqG9CpACYWqcUiC0V4+4SoHQPlbpsn0EUiC0j1W6bBOBbgRC6z0BdeuDd3EvQKtVYjJ/8XtrOJN9b713QJanijfet0LTjtWkG4EwUb7qaYn4J8t/pHcid5Pd1VB3Ww+3FUthT5X/evjTuevGgjBdPBOVdeAyFb5T5bdeV1oxbq0jrThPdOfFdGURZa7NPfzww+XK7jwHoc2OKp1Ni0AKhGkhSgdNEehUIJiTb+1gkaibBK1i917Y3FjbUF/5751rjLnz3sK/eIyuhOPhjhsdaYRZJzTh25rpXVxa5OAnvwszbkD0V1jC9S6mUurvp8OtU4Egf/y+9957H8JAum11kwfpi1sbI+3SxK91ItxINzf8xZkV/NWf2Gnhfews4Ee58F/fYcAt/95FXP7nL+KBEXf8TnVOxnQWhCjTqAfKySPcKBu/iUMaWutLpKd1Gky8Ftpyr55F/uq7KrwTtt9iK2/Us/geOzDqZRF4BQYhNtShSGPUNf6irCLtvsfNm/V0pUCYrrXl+04QSIHQCWrpZ0oEOhEICMuKdZ2sRxhB9hbw6RjffffdckKj//2ms501a1bpqN98881q5cqV1V577VW99tpr5a+V79ysWbOmevrpp0t4wt1mm22qo446qogE8b799ttFXOiEnd9gmxhiEM9bb71VPf/88yVMC+WcDrnVVluVzlxY0iz8ffbZpxCFBYchPqarJt0IBOLg+uuvL3FJC9zkY6eddqoOP/zwkkfk9cQTTxSynD9//kbSRn7Lli0r+XGFs/Tzt+uuuxbRAUtYCDNIEZY+ysDn2WefLXFYFAfjLbfcsmAIT++JlBBYykoaLFzdfvvtC8Hxb8U9//xOZEmYSCBEeqTTYVxRprAX/w477FDKwDXVyi5O9IwyE3+QO2xgZ32DPIQwELbFo8pXuXIT5SpMOPtNnRDubrvtVsreehLYwtLDLczUGW7Xr19f4oKR+iWN/MJG/fS/dKxYsaJYAdRtaXrwwQfL7/y8/PLL1aJFi0q8IRq4SYEwXWvL950gkAKhE9TST08Fgg5OB3rzzTcXstARWpGtE9Thn3jiiYXEmFB11IhJR8ztscceW73wwgvF/f3331+ddNJJxZ2OHQFaKHnnnXeWDp8/nbFO+4QTTihEFUfU8q8jR1znnntuiVcH/vjjjxfhgYiQ2bx586r99tuvpA2REgg6cO8Q45FHHln8trNvvxuBIG0XXXRRdeihh5Z0wsyWSZgQCP6H62OPPVbyDAv5hos0L126tCyMRORIlICQN6fxEQ9IHRYhOo4//viS5/vuu6+QFEJEtgQVMcY/98qFoPKX+OBGGpWR8kV8yNWxwNIiHmmL0XO9Yk0mEJSZcnnooYdKmSnvwPz8888v5aJMELQFoB6kry4sWLCgYOOdMJQTYkbc6od69txzz20URiEclLl0PvXUU4XAI94jjjiiOvDAAwvpE0DEKuKGFdJfsmRJcav++S5P0gIz6fAeVsQFQQDXW265pdQjmHJPCAbeyppfgiDqYQjqnGLIjrnXCKRA6DWiGV7pvHSI7e5i0AnqsK+44opCGogbKccIikBAXD46Ytu4EBfyQTiIScetg/QO+SDMuXPnls4b+dsup3NFJMLVyfqfOyM7hIIohGUkffDBBxciNMqMnQaKFqkawRklSjOCRLzmynX8Onzp76dAkA75/8EPflAdffTRJd/77rtvISdkI89IRj7khwggEuT17LPPLvl94IEHyvdXXnmliAqj+cizd7BD9PLoPZJHdN4RFH5DqspEGXAvXOXjN+QnTbD2HobXXHNN+R+BEi6EjDDDujHRupLWNQjqinwiY2UuDUSLsmNRkL8ga4KNcCMq5eWUU04p5SIPwiFaWGCE5+yA3XffveRBXYEjweDhVpkLi7i65557SrzEhLJX5+C0fPnygqmP9EjfMcccU+K89957i4WDuCFalBEciTJ55JaoEJ78iC/WEvzkJz/ZaM1Qt4gWfuQVvikQstPtFwIpEPqF7BiH21QgGEnrlG+//fZCKkgXoeiQvfvsZz9bOn1ujG515Dpgo0Gdv878jjvuKKLEO2SgEz399NPLX78jLZ2rTtpvyILAQJw6ZORuxIvYjGZZJoz4+ONenpCHkZ2jbJGA37hh/ZBmBIto2xEHqkenFoS6QEDcyIfYQTBBPjfeeGMhbekjEMLictpppxXRQxCJnyBDNnA57LDDClnKM2zCggA3eTP1QjQhRoSInITNX0zlIHnhIV94hkiDDwGIGGEHc8KPUEPETaYYlJW6EtNFLEeEBrFz3nnnFWHECsBCII9IWbzKjWgQt/QSFN4TW2eccUbxp+4oZ7/B1F/lKf/qo3ywIMQhYNwSaXBTB6UDJjBD+iwvRMjq1atLfASAMGATwkMYykTdlSfCQVwEgrAuvfTSUv8JqbCqKaNTTz21lHdOMYxxZ9vnrKdA6DPA4xh8U4GApJEs0kIWOlYdI6LW8Z555pmlI9fh61x1+DrzOFKWu6uuuqoQEzOwsJAXf8LR6eughSE88ZlG0IkjOgSDqAgJ74z6dNDEQoyYxYlUTE2wjMT8OlK65JJLCqFecMEFm8wNT1f23QqE7373u0VQsZBID/JGVkQMMoYRMzRCNepl/YAJkkRKRvEnn3xyGfnKr3zJP+tNLPILkiQCkJ/fiTcCwP9wJtTEr9yMsBEqwmPqF594lS0smeSVl7JCgNI/2VkZk00xyA8rkb+xdgXhqhtG1cpceRGTysVUhHiRurpJXBBMSJ9VSfkTFqxC8qCeEUzc8ys85Y7AiSPphaE8GukTWQQJgcASIW5+YGyti3oGY3+VifIStrpItPgu7bAmDtRhdQ/e2oOygy//0isPhLHplBQI07WyfN8NAikQukEv/U6IgA5M52n02O5BSTpLHbVRls5RR4t8deRITIfsvVGUUTFy0qEydetQb7rppjJPi3QQH39GqGHOJhIQMkITlhGl0ZywYpU+s7VwxY0sxO83D9GBhIx+vddxx2I2RChMnTbCQwLt3GLZqUCIKZnvf//7RRDE/D1CggfiM2/NuoCAYHHrrbcWLIw6iSIYxTQLwiQOYIuArBXgB1Z+R+bCIiL4JaS8Y2FApLFwM0bISNs734UZ5WTkzp98M9GrI9LAzD5RPZlqkSIilweCBHELl3BhCYCHslPmLDp33XVXKU+kra4QQPJiiiOsEQQQ0pZ/lip1ULqFIa38I37fjeJhID51QfqFw5KjTolHvqTR37BiwYU1IU7OVJ+Vj/YiTnUPZsL0XR1Tn7gjDrQneBMUMFSW0pJTDNkR9wuBFAj9QnaMw4054DAnT7XXPWBCBkgW2eqkjTqNqoSlAw7TPyIwejWS44cVwXSDeXidJbJgAvYOAUR40sBfjKh1yshUnLGVkn9CALnpjI2Eddix+A4RIhzEQQBwq+M2So1dFMIwakQS0z0hEBABUdEOTjEnjsBNI0iPuOQ3rthGgka+8gov6YQJTI12fY9Fb/zBUt6kwXfkKiz5iu/ikVcjXH8RLLI0MoajeXijWYQNU0TJDI44lQ+hIE1IUBl5TyAw4SPn2PVQx2wygeD32LWhXsgj7JST+qBsY22ItImXyIn1EPInb9Il/tg1QABKH7+EIzKHM8yUq7jkR7khecRPlMlLWJzEB9/YpcBNCKTYiUNsCBt+8YRFCibCkj/lpSxZNIRDrEkPwQBr1os4ylyeCRY4ai/5JAK9QCAFQi9QzDA2QQCpM+kzPU/U8U8Gl86ZJQExGwXqUJGB7/6v7y/XIXpiX7mOk59YZxB72ONsBW51utGhCje2u/krjjgXQRpiVB6L4viPswJiC6C/cWYCd/Ltrzy3sw6hU4EQIkF8cV6D3+L8Ab95F/vl5SemSOJMgshzkK3fI88xDVM/98A74ftEOUh/lEOcs1A/UyHC4Te2IfIf+PAf5yFMhNdEAqEuKGMaJNIddSTqUVglpNG7qFfS5V3kCVZxJoM4I9wg7Xr43kVdiS2WdSz9z02UUdSbyF/4D3fi88T3qHt+i/M/4iyLON+BAFOP62dbxM4OwiMFQnbIvUIgBUKvkMxwNiLQdA3CuELX6RTDuOA1lUAYFwzazWcetdwuUumuCQIpEJqglW7bQiAFQlswdbWLob0YZrarFAjtl18KhPaxSpftI5ACoX2s0mWbCKRAaA+otCBMjVMKhPbqEVcpENrHKl22j0AKhPaxSpdtIhACwQru+p0IbXofG2exZTCve564yOsCQV2qP+0u6ByXyhQnguZlTeNS4psnnykQNg/OYxVLbHOMY2djsVenIHTqv1N/kc5u/Lfjl0CwK8DqeZ8gvVgcyMLQ9IkFdHFxUVP/sSgzFiI28R+XEsUivSZ+J0q3tMDHrha7BuLhNu5GiN8IUfUuFv01idviP1j3Kt3txq28xR33j7TrL9zFZU7yLP12T9hRYZdIPolALxBIgdALFDOMTRDQYdmv7dNJhz1OcOrYrUhHFHUChFun2LUjTibCGEHecMMNZceBw6La2ao50ai+l+mOHRit8cSugzpmnRA8/yHMepnudutw7Jxp133d3UR+W3HpJNz0kwgEAikQsi4kAolAQYBY+eEPf1iEwTnnnFPON8gnEUgExheBFAjjW/aZ80RgEwRSIGSFSAQSgU2sdf/bqV0tcUwEEoGRQiAFwkgVZ2YmEegagbQgdA1hBpAIjAYCKRBGoxwzF4lArxBIgdArJDOcRGCGI5ACYYYXYCY/EegxAikQegxoBpcIzFQEUiDM1JLLdCcC/UEgBUJ/cM1QE4EZh0AKhBlXZJngRKCvCKRA6Cu8GXgiMHMQIBCuuOKKci7DySefXK4kzicRSATGF4EUCONb9pnzRGATBBw09Nhjj5WDkubMmVP+5pMIJALji0AKhPEt+8x5IrAJAiwIP/7xj4sF4YwzzkgLQtaPRGDMEUiBMOYVILOfCAQCuQYh60IikAjUEUiBkPUhEUgECgIpELIiJAKJQAqErAOJQCKwEYG4GMrf+l0McVmTy4zyeuWsMInA+CGQFoTxK/PMcSKwEQG3Ja5du7Z69dVXq3nz5lXXX399WYNw0kknVRs2bCj/77nnntW2226bIiHrTSIwZgikQBizAs/sJgJ1BN5///3qoosuqm688cbqtNNOq957773y2W233aply5ZV5557brV48eJq1qxZKRCy6iQCY4ZACoQxK/DMbiJQR8DWxieffLL6j//4j7KD4Re/+EX185//vNpqq62qBQsWVOeff371W7/1W9XHPvaxBC4RSATGDIEUCGNW4JndRKAVAdMLF198cfWv//qv1eOPP14sBXvvvXf1Z3/2Z9VXvvKVaocddkjrQVabRGAMEUiBMIaFnllOBFoRWLduXfWP//iP1SWXXFJZrHj66adXX/jCF8rHOoR8EoFEYPwQSIEwfmWeOU4EPoTAW2+9VS1durT6+7//+7Ld8cILL6y+8Y1vlAWKuYMhK0wiMJ4IpEAYz3LPXCcCmyBAFKxevbr6wQ9+UL3wwgvV7/zO71THH398Wg+yniQCY4xACoQxLvx+Zd3CtzfffLP65Cc/WUafH/3oRyu/MV03fSyO44//po94xY/8mj6x9z/OCGjqv9t0i6+TPHeTbvH99Kc/LVndf//9yzqEJtYDeHeT7k7rSTd1rBu/8toN3t3EPZlfbe4Tn/hE0+qa7hOBCRFIgZAVo+cI2Dp38803l61ybgTUaf3sZz/rSCCY/0ZcVtc3fUKgiLvpg6x0tFb0dyJs5FuanTPQ9JFncYq76UOYuGSpk3THjgbnIch/03xLNzHWSZ67STeMttxyy+qDDz7oSFQ5EEpZdSIkYS3tndYx9cS20qZYEwjSrZylW9mZJpo9e3YRdvkkAr1AIAVCL1DMMDZBQGf71FNPVTvttFMh2RgZdgJTEFXTDrQ+utvcI3Fxd5tuYWzuPIsT2cQtjk3j7zbPSK+TsuoW70GlO6wPvcizNufAq8985jPF+pNPItALBFIg9ALFDGMTBJDM66+/Xm2zzTaFbJqYqRPKRCARaI4AC8b69euLxS4tCM3xSx8TI5ACIWtGzxFgYn7xxRc3WhB6HkEGmAgkApsgYKrh4YcfLgLhgAMOSHQSgZ4gkAKhJzBmIHUEUiBkfUgENi8CKRA2L97jElsKhHEp6c2YzxQImxHsjCoRqKqyWDEtCFkVeo1ACoReI5rhlVXsOcWQFSER2HwIpEDYfFiPU0wpEMaptDdTXlMgbCagM5pE4NcIpEDIqtAPBFIg9APVMQ+zLhByF8PwVIZ33nmn7Nd3XoG9984OsA019vLXU2qLo90ncUiVnSlIyBkXFsLFuQX+xgFJw5PT8UqJMrLNMacYxqvcN0duUyBsDpTHLI4UCMNV4EHyK1asqJ599tlq1qxZ1fPPP19uadxll12qPfbYo+yfjwOOuPc/IUE8IB9TRj78Ewj8zp8/v9p6663zKugBF3cKhAEXwAhHnwJhhAt3UFlLgTAo5CeO1+j/tddeq55++unqmWeeKVYBI/+XXnqpOvzwwysnJzqFcMOGDRstBqwHu+++e9mqynLA/2OPPVYicIz29ttvX/bbu8wpDlYarlyPT2pSIIxPWW/unKZA2NyIj0F8KRCGp5DDesAK8MQTTxSSN9VgWoBIQPCLFy8u3wmJuLvC35g+eO6556ply5ZtnF4gFlgXTjzxxCIiuMtncAikQBgc9qMecwqEUS/hAeQvBcIAQJ8iSkf5Iv+77rqrjP6Vj3sqTDWYLnA0r7/1dQf10y+d8X/jjTeWKYbtttuueuWVV8rUxHnnnVf85UmZgy3vFAiDxX+UY0+BMMqlO6C8pUAYEPCTREsgWJy4Zs2aat26dUUkuEjL8+6775ZrnQkG5Rb3LxAUFiTuuuuu5RKg5cuXF4Hw8ssvlyO099prr+qYY44p/6dAGGx5p0AYLP6jHHsKhFEu3QHlLQXCgICfQiC88cYbZQ0CQYBQLEq0UJFwMFXgd/8H2ZuS4Id1gVAwrWDnww033FAtWbKk2nHHHYt4sBYhpxgGW94pEAaL/yjHngJhlEt3QHlLgTAg4KcQCEieJcCug7h627oDgsBv8QTZszrElEO8U64PPvhgEQ1bbbVV+Zn/3OY42PJOgTBY/Ec59hQIo1y6A8rbuByUVL8OeTIze7iZ6H28q7uJswfq5Nzqd6JrmKcz89f9xPXCExF7xB/kX/cX2x/jbIt6nO1gMVF1bMWnnu/6O2mO65GFM1F8E62hmAr/ATWPvkRrp8kjjzxSbbHFFnlZU18QHs9AUyCMZ7n3Ndfmr1999dWyoG1UD0pCWEblCEh+zeEHcTl8CJkRSjpuuwbM1Rud+3jHhM+sH+sD/HVwkfMF+LFOINYFWEwYI3v+bEkUZ+xQEC83CF+cQabxPtIjXO+4iR0Kvlto6J2wEYyyk5Ztt9225CkWOXofaReXaYoQCdLEQsGPHQ6BhbiktU7q/MpbHLzkXeACU/XGY0qDG9YKWzKF7X9uYRr5rNexCFcc8mKaRLqlVbrCatLXBrCZAw8Lgl0q8rzPPvts5hRkdKOKQAqEUS3ZAeYLKVjpbn56VAUC0nFokLn5119/vRBPkNPChQsLeXsHB0QXxOZQIkTF7/r160uHjqARmL/77rtvWRuApPmxMND1vUjeVAASfuihhwrpCR/GiBMpeC9c4oJ75Coc/hH+/fffX8QBMkfE/IrfNkd5kNadd965LEicO3dutd9++5XyE4402SIpnLfffrtsj1ywYMFGYkfgq1atqhYtWlR2OHjEZVGjsMXnO/9wcvYCkpfexx9/fKPQkL/zzz+/uJdPebSVEvk5d0G6pNF3cfI/Z86ckkbYcguzF154oeTb6YK2acLmqKOOKkJq1NZMhECAo/J0gFU+iUAvEEiB0AsUM4xNEBj1NQg6ZCNTZIY4kVlYTIxqLeJDUtzdc8895bAhJIk4DznkkIKV9+bzETkSRXqEBQJ05gAiJRqQNaFgUaD3a9euLeSI5FggiA1hzJ49uzrssMPKbw48YolAxPfdd19ZM4A8r7rqqkIgBIT47UQQ9rHHHlvEgQfRIlTupIkbVgJplF4EbDcEIYPkpZM4EqdtlMcdd1yJKywGYbEgLmB05JFHlnQFhoSOhY9BcnD95je/WdJgayWilwYWGB95gSM/BJb8HnrooWVdxUknnVTSLa3CUS7SBCMCCrbIMywqo9Jscw3CqJTk8OUjBcLwlcmMT9GoCwQmc+LAiE3njKSMdP1mZf+BBx5YrAbI79Zbby0mdsRLHBxxxBEbR8aIC9HHCYZG5Aj4ySefLCQLx5tvvrk66KCDyomHiBjR+utDdBiFM8kjUYQuTnPRwmWRQKLCJTYuvvjiQs7iRZ4IHlkefPDBRZQgVcKCRSLM+8iXiHj00UfLaBxBI2/v5UV6CQjvWChOPfXU8lt9fQOMvCdCbI0Mq4R8skbE3LnRPXdf//rXy+/XXnttiUsawupCBMjr0qVLS5qJHZYOcZxwwgll+6bTImEHF2H46x0RJf+jNs2QAmHGd5lDm4EUCENbNDM3YeMgEIgCo/mY67788suLEDjnnHMKuT/11FPFnO3cAWSHfBExEzwLALJkHjfy9Z5fZnvviQlEZluijzCZyBErszpSRPArV64sooDpnTAxwg6hEvPzwmZ58Fx66aVlhM2iwYLAD+EgXatXry5iQhhEBosFsuWWAEDicdGTvMdiOCJEeZteQMzSidBjTURYEkIgsK7Eeg0WBX74lX9YSsN3vvOdEpc0sSBIj3TJE0uAdLOsxBSF/MH7lFNOKaIHBsSHePzOHyFEvBA/KRBmbt+SKd+8CKRA2Lx4j0Vs4yAQmLERm9EpwmF2N6pGUMzYSNxoHJEjR3/NgRvFIkMC4d577y3EhwQRorl0AiFEAyImCJjluScgiAeWCu+M6uMUROEYZUsTEow7FFgnjPRZG6677roiJhA/4WINAoHA9C6NpiMIA6TPCsIKwZyPiGMen7tIk2kGokUciB5xEz9GtIRAfZEjfOTBegf5j8WQLpCSF1MV1kawkHz7298u74VJRBEKrBKEFwyQPeInfoQb4sGBT9IuraZ+4EkIiU++5FOaRnUNQt7mOBbd62bNZAqEzQr3eEQ2DgIB4RrFIhzEaNSKOGPUHUca+z1GukjPfL9Rtjl0QoD5HoEZJRMbphOMeOOuhDvuuKNYH5DuaaedVkiP2LAeAMk77lh4sWsCaSJJcSJ8pHvuueeWuAgR4XATJyJyi3Tlh+AgCFgmlKG8CV8epCF2FHhnhM6f9LCkIHB5j2OZpYllgpVA3sTJf4zg+TXCFw7CDgytO/ja175WMHnggQdKHoUhfGJG+ogMxAP6FkUAACAASURBVA8H+fRXHP73XnjiIVyQpryztMCeeBu1hbM5xTAe/eogcpkCYRCoj3icoy4QEHhs0UM2sU0wrkj2F1EiLe8IA0Tt99juiHBbTd3C4lbYsSsCsfKL9PiNOxMQJFHAUtB6m2KkD2FyE6NmvwtLumKro6oozligKB5pR9BG6qYKpAfJesctQhJ2pFdYfueev5gyYRWI7Zj1Ki9N/Prw62H9EIe4CaXYRhpbM2NhI1yID9aa+jbH2C7KnXClRRrjUKg4EAp+o3b7ZAqEEe9QB5i9FAgDBH9Uox71g5J0yPWDelrLMd7528kpg5MdFhThxY2L4p3IXD5R+qSj/ns9jkh/PU8THc402SFKcYCRv60nMNYPN6rH04pfa/paBcVEeMdvUx0SFe/qbqc7VGomtktCKqcYZmLJDXeaUyAMd/nMyNSNukCYkYWSiR5pBFIgjHTxDixzKRAGBv3oRpwCYXTLNnM2nAikQBjOcpnpqUqBMNNLcAjTnwJhCAslkzTSCKRAGOniHVjmUiAMDPrRjTgFwuiWbeZsOBFIgTCc5TLTU5UCYaaX4BCmPwXCEBZKJmmkEUiBMNLFO7DMpUAYGPSjG3EKhNEt28zZcCKQAmE4y2WmpyoFwkwvwSFMP4HgUB6n19mPns/kCLSzVW+c8Ut82it9AsFx2M6ecItlPolALxBIgdALFDOMTRAgENwhYI/+qB1r28uibj1waBT353eDV1yEJQynKOYzOQIOv3KPRdwKmlglAr1AIAVCL1DMMCYUCKwHKRAmrxwOFSKkHLfs3oYUCJtiRSC4iwEujlrOZ2qB4FhqJ2vG5VyJVyLQLQIpELpFMP1/CIGYYtBZ5RTD1ALBqM/oOG5NzOr0fwgQCO5T8LhkKp/JEYg1CDnFkLWklwikQOglmhlWQSAXKbZXEVgQUiBMjlUKhPbqEVe5SLF9rNJl+wikQGgfq3TZJgIpENoDKgXC1DilQGivHqVAaB+ndNkMgRQIzfBK120g0K1AQAzI002A8cRFQdY0xMU+cSNhXDzkXfiNi4m4jeuT4+KkuAUwwqxfqhRx1i824i7ijMuHwl3cyNjJpUxNBAK3Pp7Wi5bqaxfiXaSX+/Bbv2zJ73HtMT/yE1jVr0MOPCPuKI/6TZT1+APbiDfSW/8bWAWWytH/UbYRRy8FgrDq8dQvcWq9CKr+Pf6PfMX3+tqaqCvcwC6wEV/gF/FFXao3I9jH7603fLbR3EocFinmZU3toJVumiCQAqEJWum2LQS6ve6ZudQ2yWeeeaZ0fq4odk2v63uPOOKIch3wK6+8Uj3xxBPVggULqkcffbSaN29eWejnefPNN4t/4biG+KWXXirvd9lll0KEOtPosKX15ZdfrmbPnl1+i90Xr732WnGr0zevu9dee5X4XZ0sLffdd18Je+7cueW3fgqEIHBpkyfpj2uMXW+8xx57lDRKr+uSXYUMC24Q1vvvv1+wjGugrQuBKexg8vrrr1dPPfVUyYspj3322afkycOdeF1PLY4QG/vvv38hdPjVhRfcd9111+LX/9LOL3chMg488MCCJf/bb799dccdd5Rrpffcc8+NWIaY6dUaBHGrL/BZtGhRuV7aI13wrN9CGUICtuoGzON6bW6lWx6EITz5gxPsTjrppLLoVPpXr15d1uCoS9wKVz4tuFRHuYOd+isuuPtN+E0WrKZAaKtbSkcdIJACoQPQ0svUCHQrEBAdAtFxPvnkk6UT1iEjusMPP7zaZpttqjVr1lSPPfZYdfrpp1fXX399IXAEgxgR0/33318IXOepk/aeCNAhIwqiQaesM37ggQeqL37xi6VzXrVqVem8kSziFef8+fMLkdlnLnyLCq+77roSvnfS5v+mT7sWBHlA9oha2uGLoP2G3Pfbb7+SzuXLlxfcuJd+Cx8PO+ywkva1a9dWjz/+eCGrQw89tLj3lxCAsffHHntsdddddxUcCQf+YHHbbbcVAoS7NCO43XbbreBFWCDPGDnD8qtf/WohRPHZhYBU4YZoCTXhy4u0Cueyyy4rf4UrX4RIWEB6KRDuvffeks9zzz23ELUnxJP68PzzzxfxKa3qivz7jUhA9uqQ/9WZ448/vuRNHVQOsJCnfffdtzrqqKOKiLz99tsL3twLF34HH3xwqY8PPfRQwcj/xCb3sLEDQb1MgdC0NaX7fiCQAqEfqI55mN0KBISi80VWOkok9e6771Zz5sypjjnmmELG99xzT+lIdcY//vGPy+hZ5+qzbNmyQno6ZUQZ5zEgS6vhEROBoYM2arv88surU089tYThf/F5hySRFVGCUHT2CEXY0obMCIRDDjlk44i7SdE3EQjifu655wpRSwNSCovA0UcfXfAhYBAYzIxmDzrooOq4444r7pEj97AluBD6ySefXPbNI3V5X7JkSXX11VeX//llUXjwwQcLVvIvXH7hDscjjzyyuEWeHr9dcskl1Re+8IUS17XXXlvSoRwIgFdffbWkBxGyAMmL9F588cWl3MTpkB8HbIVVotcCAUYEAvFUt/rI15133lnS5iP9cJNOdYggJAKIL3/PPPPMIo78DgN554eIUCfl+6qrrirlQnCog0THOeecU9zBQv5he/fddxeRKQwWsrBAtFuX0oLQLlLprikCKRCaIpbup0WgW4Gg4zSSN1pG1EbJOmpkjeSNQBFLjGYvvfTSavHixWV0piMmLnTMcWCTURqy03kTFzp0/nXSOmOjOSSLEIxmY30BopIWHb7RbZxZEBYK4YmTSOhkO2cTgSAdRr/EjXwhFX8JJqNW+ZUu+Zc3nzPOOKOIHCN5RMT0T9wwiUsvSwiRQHwElj/5yU+KIDL9QBAYQYsTJsqAWwSKzIywPeIyAlc+xBmrDiyvueaa8s7omLhTngSANCNXZfv2228XzGEsHwQb9722IBBUBIC6IX7pJ5LiqQsE5RlTW4g+3iH4mKI666yzCi433XRTsYzAmbCEqbzAiSiDn3oCS7izVBFMygFepn6UjToNc3HX14BM29h+vSYl1yC0g1S6aYpACoSmiKX7aRHoViDo7IgCnbOOFDkiJ4SCyJGIzhnJ6GRXrlxZnXbaaYXskQvS0UEHuSFGwkAnjECNIsPsG5010uNenEjAoTM6fWGdcsoppZP3m3CFhez8NTJmQTCqbvo0EQgEAMIxJQCfm2++uUQn30jXSFv6jYwJAoR99tlnl3QjLjgKQx7CgoDg+Ycvv4gJNjGPTkQYPcuzaQRkL3wkSDzFVA9/0uU7EcMSIH7/izPWNbCAsDoQVYgaYcLa1IhpEiNt5RBz871apCgc6Yef9MuPkTrrSV0gsAqFBSHWQBCFPjG9BAP4f/azny0iIqZn1BP5hwuxqv56J8/cwYcb1hX/C1OdJqSUB0zVJ/U7BULTlpTu+4VACoR+ITvG4XYrEPjXcRpZ6cyN/lesWFFGakairAg6Wx2wDl3HzkSt0zUCQwI62eicjRZjdX+M7BCSDp0bhIoUEXYsBLT+QWcvHJ23Th0JEwIIQHqIA+sUYmFZ0yJvIhDk14hcmhEbAvYbEpcXgifWCFgz4HfCxm9xTj8igg+yk2/iismbQJA3YsJ0g/CMbOEGS3lG8sLxLkzzCM5UD4GC3IkmxIjkjNiJAELO78LwIboINVYb4bAaWH1P9IkPSdZ3qnQ7xUCAEEjWpLAAsARJM/yUubKVD25YrZSnPBOa0qMOqgv8ST933LOSEFhwEp6yhK16Ih71zdQLq06ISvn2Ibr8DveYbvG78KQnFyk2bUnpvl8IpEDoF7JjHG63AkGnzvzPXO3Zeuuti4lW5+sdMjH6NJJD0jp/RKJjZTLXweuEjUxZCKxa98RuAP4Qvw4aeflOYCAs4SA7I06dNQJAdBb0BTEahRMnLBoEC8EgjU2fJgIB4SLVsFrE3HgstkPM0hO7G5BS7PogFqwlUC5xp4FwuDWaJzRgwdICcyKJsDDah593hEOs+YjtpLEzQbzcEFqx4wOmgSEylAbWBHjCWlkoA0RNIMAWScIZUfZqiiEWISobAkjakTyrk3pCEBA+8qLOyIu4pVd9I6qkkSiDnbogD3CDH+Hku3yri9yHELCAkdCQb+Gq07H4VfixYFYYsZAW5rkGoWlLSvf9QiAFQr+QHeNwe3EOQnTYAaMOFEERCDr5WCcQRK/jjdG+v8hXx8yfTjqe+nY2v8WWx5iPjm1ssTcdefjEyA6xIVS/eaTJu36uQRCP9IgzFlz6HiTrr3exR19akJdPiCtEWT9LQrrDfz0sRA9L74OouIMlQquTV8QXZA47/0tjLIiEa2wbFI80KY/AW7p8hBVxSn+vtjnGmoEIM4QivMQR5da6TTXONgjs43wCeZSfWMsinKgrse3TuxBr9XM4QojIf5yjAFeYR11SXvW1Ee10I7lIsR2U0k0nCKRA6AS19DMlAt0KhHGBt10Lwrjg0ZrPXq1BGAf88qjlcSjlzZ/HFAibH/ORj5FAYJY1h9/JyHrkAfp1BlMgTF3SKRDabwkEgvUSrBPWieSTCPQCgRQIvUAxw9gEASZXc+DmcFMgTF45QiAw25vjbnI4zjhUuRQI7ZcygWBdTJzu2b7PdJkITI5ACoSsHT1HgAXBwrRYAd/zCEYkQEKqfpvjiGSrp9mIXQwWGOYzOQL1cxCcp5BPItALBFIg9ALFDGMTBHRWtoZZzJej4qktCPbVW/1uB0FgxerCuhALMZtUL4vifIi0Th9+m261E5d0x/0VTeOeLN22Y9qxYldFPNyyTrG8xGNRYH2hZpP4+5HuduJX3hZmWrjZySPdcSGUv3ZTEOVO+MwnEegFAikQeoFihrEJAkjCyM9BRrHCO1a8N4Wq9QbCzem/m7jb8Rsr5YmD2G0QROtdJyQfuxyItKaYc+98B39tDW16+FPsMulE2EyWbjsqbA+Un3jikqfYWgrrEAhxIVS79SRIOi5satdfPS3S0wnehE5sEW1aVvV0B97+2iIaW1+b5iXdJwKtCKRAyDqRCCQCBQEE88Mf/rDMYztAyd7+fBKBRGB8EUiBML5lnzlPBD5k+UmBkJUiEUgEAoEUCFkXEoFEIC0IWQcSgUTgQwikQMhKkQgkAikQsg4kAolACoSsA4lAIjAxArkGIWtGIpAI1BFIC0LWh0QgEUgLQtaBRCARSAtC1oFEIBFIC0LWgUQgEZgegbQgTI9RukgExgKBnGIYi2LOTCYCbSOQAqFtqNJhIjDaCKRAGO3yzdwlAk0RSIHQFLF0nwiMKAIpEEa0YDNbiUCHCKRA6BC49JYIjBoCBMLVV19djlg+6aSTyomK+SQCicD4IpACYXzLPnOeCGyCQFyv7I6A2bNnVx//+McToUQgERhjBFIgjHHhZ9YTgToCLAiXXHJJuUDorLPOyrsYsnokAmOOQAqEMa8Amf3xRiBujWQ18P/FF1+88bImNwa6SdENgZ/+9Kfz6u7xriqZ+zFEIAXCGBZ6ZjkRCARcKb127drqpZdeql5//fVq1apV1Wc+85nqggsuqFy1/MQTT1RLliypXElNMOSTCCQC44NACoTxKevMaSLwIQR+8YtfVHfccUf17//+79V9991XfexjHytTDPPnz6+23nrr6rTTTqsuvPDC8ls+iUAiMF4IpEAYr/LO3CYCmyAQCxP/6Z/+qfrP//zP6mc/+1l5Txz8/u//fvV7v/d71bx589J6kPUmERhDBFIgjGGhZ5YTgToCH3zwQXXVVVdVf/u3f1umFEwlzJ07t/qN3/iN6s///M/L+oN8EoFEYPwQSIEwfmWeOU4EPmRFWL9+ffUP//APZRfD//zP/1Rf+9rXqr/4i7+o5syZk9aDrC+JwJgikAJhTAs+s50I1BEwtXDNNddUf/M3f1O99dZb1V/+5V9Wv/u7v5tbHbOaJAJjjEAKhDEu/H5l3bx2PjMLAWVmS+Pf/d3fVS+//HL113/919XChQsr2x/zmVkI5G6TmVVew5zaFAjDXDozNG0O3Hn22WerJ598shzbax/9iy++WFkx3/TZfffdq/fff79swWsiPHSSO++8c1mV/9xzzzWNtoycZ82aVbb/NU03Ut17770L4RqNN31sKYQhom76WFy4zTbbFLxtYWzymFq48soriyiwe6HJ2oM4ffGdd96p3nzzzSbRFrfbbrtt2V75wgsvlLw3eZz4aM3Ehg0bNi6ybNe/+qGOvfbaa5W0N32ke6uttirphl+Tx84QUzjaSdM6Js/S/corr1TvvvtuiVZ52X2yyy67NElGuk0EJkUgBUJWjp4jgJh0ejouHZkz/e2pb9qBShjSEJ6FdE0fJI+4Oun4u003kpbmn//8502TXQgHVoRR04cg8+kEbwLsjTfeqD7xiU+UNDQZiXLLj/x2kudItzrTRAjCR9zbbbddEWNNxQW/RBWsm5K0uKUbXvBumm7ihMBoKn4jz9qGOibdISgJjgULFjStNuk+EZgQgRQIWTF6jgBCN6IyAtd5NiGanicmA0wERhwBwoQoW7NmTRFpKRBGvMA3Y/ZSIGxGsMclKgKBiXunnXYqAiGfRCAR6C8CBMLDDz9cphkOOOCA/kaWoY8NAikQxqaoN19GUyBsPqwzpkQAAgTCI488UqbzUiBknegVAikQeoVkhrMRAfOhFk9ZnJhXBmfFSAT6jwCB4E4NAsHJl/kkAr1AIAVCL1DMMDZBgECw+n+HHXbIKYasG4nAZkCAQHjssceKQNh33303Q4wZxTggkAJhHEp5M+cxpxg2M+AZ3dgjkGsQxr4K9AWAFAh9gXW8A02BMJzlb7V7fSue3SXt7jCp+23ibziRGL1UpUAYvTIdhhylQBiGUhixNKRAGM4Ctddf2dhZ4mhlK96tEZmI8EMQOEfC/85l4Mf0ETO2333aFRjDicjopCoFwuiU5TDlJAXCMJXGiKQlBcJwFWQQ/AMPPFBOlXSo0PPPP1/ttttu5SCqvfbaq5xZ4UH43DuwyKFJ3BAFtq062+Lxxx8vJ/XZb3/ggQeWQ4byOObBlrfyclhSbnMcbDmMYuwpEEaxVAecp7pAiBHqgJM01tEjEKcMOkjHCZcsAKwJPkcffXQRAU4CdLRzTEEYkSJ+IkB52pWybt264odw2GeffcpqeQtRc6fKYKtXCoTB4j/KsadAGOXSHVDeUiAMCPhJokUgjuQlDlgAjDZZCogA5/kTCa1WAG5iCuGZZ56pHnrooXK3hOkJR1d7t3jx4urQQw8t913kMzgEUiAMDvtRjzkFwqiX8ADylwJhAKBPE6U1BKYYXEqE/I36TTW4r4IlIG5zJBpMKfi7xx57lIufWB9uvfXWYmHgx1SDUzLPP//8xnc2DB8yMz9FKRBmfhkOaw5SIAxryczgdKVAGK7CCwK59957y2E6b7/9drnpEvkTCywI1hKwDBAH3LMQ+I3FgDC46667irjwEA/WIZx66qnlsqG0IAy2vFMgDBb/UY49BcIol+6A8pYCYUDATxIt6wFSf/rpp8siRd+tHXA9MrFwyimnlDUIyi0WKYYVwQJGCxaJBNMUN954Y3XUUUeVUzJZGHINwuDLOgXC4MtgVFOQAmFUS3aA+cpdDAMEvyXq2MFgmsC1wmE1IAD8ZsEiawLrQQgEQXjv+6677lrcCMc2x5tuuqlYHGLXA7e5i2Hw5Z3bHAdfBqOYghQIo1iqA87TMAuE+kFBYIrvcRZA6/uAMkbW3tfdxvc65JO5aT2kaLJiqqdpqvi9Yw1oPYug/t37GGH63ZSBaQXPdFdxR54DJ6KBpcEWx/q0Qj2/kd6J8lDHe6oq2opTK54RTqSvtezq6ea29XtModTTE3FMlpfWejLgJvah6FMgDFuJjEZ6UiCMRjkOVS6GeYoBOdqqZ9SL8PzvwKAgPWZ0v5l/Z1pHLvGO3zfffLOcHeB//j/5yU+WTxwoFKNvHbaRt8WA3HGPrOuPsL2Pcwe44cdIHXmLN9LJb5C93yJObvmvk6ow+Y9pAnlSJsLzhF/5DH/c+liE6LdYi1APW5iEgXTA5lOf+lRJq+/1tQi+w4lbWIWFQVhwCVET1g3p5Vb+Q8wEnv7CxDviJHZWyJM4+Y1tlvIj3RZeTiQe+DGlIjxu+IOL9AhfXryLg6D8zn39UCjpk+9husY8pxiGqvsbqcSkQBip4hyOzAyrQNCRmne/+uqrN67gt4WPGf3YY48tC+/s93coELO7ff9M8vPnzy9kwiT/1FNPlctwHn300bJoj7hwvS4iRChICpGJx1kBVvv7jXvbBBFYjHiFuWDBgkJCy5cvL+cLcO+iK6RklwDClsZnn3227B7wSNPhhx9e1gE8+OCDhXQRsvAQ3Y477lgdfPDBZd2ARYmmFvxvPQESPPLII4sbWx7lVXmFUDjhhBNKGm2JlL+6WJBW2yKlEzZ77rlncUcswA8W0i2OO++8s5D+kiVLCqF6xMOf/CBo38Wx//77l/UMDvoR9z333FPSJ0/K4eyzz66eeOKJcp2xPIpH2Icddlghath7YC58Wy9h5AlLh3zA0HZNz9y5c8vuDb8pN2szTLP4bc6cOSVc5bhs2bIShrR4/LUGQ9kOy5MCYVhKYvTSkQJh9Mp04DmqX/escx2m43gRzdKlSwvpSxdyQXjIDmkEiSAhxEs8IBtk7J3DhhwshHCNxI1i99577zLqRLgIUliIiB/+fXTiCGjVqlWF5BxAxD8i8g5pIltkijQPOuigQprCi1GurYbSS5Dw65EmpyIiLvHxb30Av9KAaN3yJz/iR34+8kw4EDxB7MSIT6RX2NLK8rB69epq9uzZBaOVK1cWERPbHuGE8Amn/fbbr4iU66+/vuB31llnFf/yaASPdKWdIPK7vIS1Q3zSeO211xaSV1bSf9555xUhhKzVLfkjluB84oknlnikBW7ECpHFHUGk7LgVLyFmoSZBIM7TTz+94EDAKTvxC5MAkFe43XbbbQVnwiFEGBFlceawrL0IgSAP6qG6nU8i0AsEUiD0AsUMYxMEdM7IJ8zOwyIQdKRI2Ep8ZIZYkK+0IhZEhJT8H6cNIkj/Gz0jPqSLJI1mjVgRySGHHFLyilCQDwIzIhWuqQq7BISB/O6///5CNAhGOAjQ7zp3xCs9RBUBgTyREGKTdlsNCQSCJEbOxAH3wpB28QnXCBepEg1G8x4EjfyID5YF+RSfv+IgLozmQzxJEyGAHI3MES4rC5EkHSwxcBEXywtiFjcLwg033FBI+cwzzyyio14HxCkv0srS4eFW+pXJj370o5JG9Yh4YUEgrAgk5bFo0aIiBmBz8sknl3iFSUDIh/j4dZCTMmO5iS2aRICwlZs4CSR/lRu8CCtpkk9+br755oKL8pMGZcI/LIblBMkQCMoIXupHPolALxBIgdALFDOMTRAY1ikGiUSMRrdGljp+xOoxqj3jjDMK0RlVIpD169cX4kH4SNDok8BgNhcOckb0xx9/fCFZogHZcM+fsIVr1X+cQEgEIEukzi9rBCLiF7EaiSNJDyJEorFW4Pbbb99IqrHAEKnyI/4f/OAHheARKsFix4G0Mt2bHkGeCNUoWT79FsQsPnmM+xmIGPESFTFtQCiId8WKFYWAESYSlhcfxARXooKFQD4RrXzAIUQCbIgWeSOu/I6gCS6WgKuuuqqkBbETOJ///OeLhUV8Qebi4Uf83Mq/dBEHMU305S9/ubjxPchfGbJysJKIF/Y+yhKWys50iffEoDClQZqJPvgSl/I6bAIh72LIjrjXCKRA6DWiGV7pTM1tG9kN010MRlpI4JprrikkiTClT4eP1BCHkbG0+x9hyQsiR0gIH8EYPVpT4DvCFBbC5N5Ik0nbXD0BglyRoHi4JxDEIXzvjHCRE5JCyDGSDysCDGPBnlE5AjP3Li/iQXxImLgwd899rBXwznqDcEc0ECtM++Jh4eBPnrwTNtKWZ9YQxCgfYcJHjkg1LAgOXjrnnHNKvoxe5VOeWUmEg6zvu+++YpEgEqIuwIpAgMPChQtLfPJIVMQ0gXcEmnR96UtfKjgRZUQDSwFLiLwqCwJJ+RECvksfYUO4CZfVgMVCXEQR8UMASmPEJ1/Szq11D9IrTmmK9QzKlwVBfYD5sCxUzDUI2en2C4EUCP1CdozDHXaB4Mhhi/x0+KwFRovSHIvTjFaRqL9+R9yxUBEpMjEjT++N0o2Ov/a1rxXCMGJlZUBa/hIPSDoEAtJGTMgKeSEyZIyskRzCQoqIm3kekSEqpEgAOL1Q/B6j7bvvvruQOMJCZsKOtQvSTWggPeESPtKN1JG3cAkd1gtpRK6I0ihdurgRBpKXPnP28ui79In/3HPPLfHCknUiFiDGOgmjcBYb8/amU5B4LE6ECSHALM4KQMiEOIMpUkfoLAjywIJC2IiDSIJ1lIX0yru8wN3aB9iZQvCdmBA/PKSfUGN9gDUBROBImw8rClESU0JHHHFEybd8fvaznx0aYRBdTAqEMe5s+5z1FAh9Bngcgx/WcxBimx0yMVqMw4DC5B8LBqXfE9vuuIuV+EgRqQWxGI0i+li0hlxjYSZy5Y/YEIfwwkJQ34onPRFXbIX0XRyxGBFZCc9vrBSRvthuGKvuYwukeKRFnhGnNPHvIRKQc2xHFH8scPQ+0sCPvIvbb0bSwhNubIOEBfHgCWEjzzGlIB9EWGwNrG+fjLYhnsgn7ON/eRNvbCuN6QW/wYBb4YojFnxKC6wjj4SMT+x8kH44EBnyw2oS20xjN0csPo20cxMHSxEdw7I4MQXCOPaumzfPKRA2L95jEduwCoR6hzpdQcR8ef18gSDP2KZYD6P1IKXWd77HmQKt/lvjmMhv+G9d8DmZ3zhjgL/WuxJaD1Lipp6mCHO6A4fqeLamq/69nsbJcJ2uPKZ6L/x6uO3gGyJoOrJvDXs6993koxu/eVBSN+il38kQSIGQdaPnCAy7QOh5hjPARGDACKRAGHABjGj0KRBGtGAHcqxtyQAAIABJREFUma0UCINEP+MeRwRSIIxjqfc/zykQ+o/x2MWQAmHsijwzPGAEUiAMuABGNPoUCCNasIPMVgqEQaKfcY8jAikQxrHU+5/nFAj9x3jsYkiBMHZFnhkeMAIpEAZcACMafQqEES3YQWYrBcIg0c+4xxGBFAjjWOr9z3MKhP5jPHYxhEBwMM2wnDY3TIVQ30Y4TOnKtMxcBOoCwUma+SQCvUAgBUIvUMwwNkHAATNOsHMY0LDd5jjooopT76RjmI6hHjQu7cYPvzjIKvH7FWr1y5ocE+0Uy3wSgV4gkAKhFyhmGJsg4OQ6RwPrwEMgTHUY0FTwdXOwzqD8ys9kccPBaYxOV3T8bz7NECAO4KdewW9Ybgptloveug6B4FRPl0g5MjufRKAXCKRA6AWKGcYmCDB3uhTJnQD1W/wSpl8dY+wa5byWt7PawDrlbgX1ytXS+fwKAaJ89erV5VhtV4Xnkwj0AoEUCL1AMcP4kEBAgi7gcVZ+jvL+Dx4CwQVJpl/icqSsPu0jQHwSCNa2qF9Zt36FHVzcMRH3brSPaLpMBCZHIAVC1o6eI6CzckPhvHnzUiC0oJsCobvqlgJhYvzg4tItF1u13r3RHeLpe5wRSIEwzqXfp7ynQJgc2BQI3VW6FAgpELqrQem7CQIpEJqglW7bQiAFQgqEtipKB45SIKRA6KDapJcOEUiB0CFw6W1yBFIgpEDoV/tIgZACoV91K8P9MAIpELJW9ByBFAgpEHpeqX4dYKtAmCgeCxdt/WtdwDjVVtvptsRO9z7SEXH73upnsvTU/bTmpzWMifLFD1zsZMg1CP2qeeMZbgqE8Sz3vuY6BUIKhH5VsLpAsM3Rmg6PFfy2PlqoZ4eDhXq+2xbpN+6Qq7+2mHLzy1/+snz8Hn8R8hZbbFHO8PBwj3jtxonvwvZbhMeP79tuu+3GcEMgeOfsBuGI86Mf/WgJR5ree++9Quh+F1ZdwNRP2+SXP3H43yfSK6xtttmmfE+B0K9aN77hpkAY37LvW85TIKRA6FflqguEOXPmFKJ9/fXXqzVr1lS77rpr2UI6e/bsarfddqv23HPP6o033qieeeaZ6sUXXyyiAfnz55Al/rxD4IREiALvuXvnnXfK59lnn6122GGHIjhsTxXPK6+8Uq1bt26jleDtt9+uTjjhhPI+/AXJe0coCJfQQPC2aq5YsaI6+eSTS9jcystbb71VrAE+ISj4mTVrVvXcc89VDkN6/vnnyzuCQFznnXdeyVsKhH7VuvENNwXC+JZ933KeAiEFQr8qV6sFwSgcgd9///1lFL1hw4bqmGOOKYcFBfEizjvuuKOcEXDQQQcVMkXIyPbpp5+uEPh2221XLAsvvPBCtf/++5d3wiIgvDeC5+/4448v4oPguO+++4pYQOoInDVAvNLxyCOPlDC4dfKjh19uCJKHH364uv7666vf/M3fLGEQDe+++25x+9prr1Xr168vQsfRycQMfwTNq6++Wt1www3lEDKihlD57d/+7Y2CIacY+lXzxjPcFAjjWe59zXW3AmGyueLJ5nTbPcZ5ovnhACLCiDneiQ7gmSiepgf1dLLNsR7vZPG1pm2qee0wf09XCVovlap/nwyL6cquNc6mF1e1CgTkz0pAAJhmeOmll8qo3CFUSB3ZEhGO/kaejiIWBhFAAMQUhTCIBYcv7bvvvoV4CQKCwe9G7ETAkiVLCvGvXbu2vOdfvEb5rA6HHXZYsSKI9+67764OPfTQjWnwvyO2Efvtt99eRMDZZ59dREC9vAiBBx98sJwjwgoiH/JAdLBy3HrrrSUOj3R/+9vfLtaNtCBMV6PzfVMEUiA0RSzdT4tAtwLBCMsoLB6dp85YRxmX9dSJUicddz7ERT7eR6fLn098F3aMCMURc8kxr+u7DjfmiyMd3uvcIx31OeVpQfm1g6YCIeabI53yEOmK/2MOXfrqWMV8dcy/8+d/JBPm9MkIux5vYC18OPNbx0oYcXFSpCXmzWNufSKsuFFeUbbtiK26QED2CNLFYA899FAhTeGZkzfCRrAepvs777yz/G6EDwdujdZZH8SPdP3/hS98oYgEB30ZufOLmMUrvpNOOqkQMQsCYcB6wJ+wd9lll2r+/PklPNYA1gf5Ng1gfYJw1Sv+xCcd/LFqEBhRrwiElStXlvTHaZvyZUqDULjtttuKZULaCKI/+IM/KPHkQUnttsJ01y4CKRDaRSrdtY1ANwJBR6hjNYIz4jMSYyrWUepczb8iBFdJcxNi4pBDDikjOKZbpmLEZLRmlKbTRhgICLFxIyyjyLAYSLM5Xh2wEeOJJ55YwqmP7KSFKRtxeKcDF06Tp6lACDOyUSsSkMYgZIv04BDEv2rVqkJEzOVISv5h5IOktt9++5I3+Wa+DkKqpx/hxggYznVBJP9G14hOOpSPcBFeYCF/4mAKh1MQKT/KoC50EKtR/JFHHrlR4E0nEloFgjRZdyAcaVEeylSdOeOMM0o5IXSkioyN4rkxbcDq4H84IXpujOgXLVpUBAIcCR9hWzPAOuCdNIhLWuElrLjaXB1kOfA7awOrA/ylA+b8yLc1E+o08eH2RfjE1eiwIxDUWxaEeKTDEeZEAUHhu/r8J3/yJyWdKRCatMR02w4CKRDaQSndNEKgU4EQK8bN7brsSaeJsBGNj85Wx21xl87Tb0G45p11kky3CE5HbcSFlIgH88+IjKAwekMKftfRIo4gf+SC1C644IKN75Ck3/xdvnx5iUd4yHL33XdvdLRtE4EgLbBEGIgEGSAaZCRviAURShNSRkpGsdJ58MEHF9KWbpf4hJAiIIyEuUNWwkVwwiUqjKoRm1FsCCrheW6++ebquOOOK+WCMGFIKBB0cITFEUccUcoHkSkfAo2bww8/vKwNQG4EmjKSXu/lwfz8woULJ7VsRAWsCwTkiXyVq3rif/P5iDIEIH/Scs899xTrAVy8Ew4ilzfE7Td1Rx6Y/D1xXTmyVgYEgrwre+KKX7j7H6bwg7M8hnUAiZsuIMrED2v5F6ePen7XXXcVkaRs1EPiA6bwkwZp41eZC0/dJi5YKZT9l7/85YKbPOUahEZdVTqeBoEUCFlFeo5ANwJBR69DRkY6UISKfHR8yIl40OFaEU4w6FC9Q0zI7fLLLy8dq9Ey8tHZswYQAYjKbz/5yU9KRy88HS1S8bsOOBan8YMI9ttvv0IOF198cREEsRoeqXmHhCcz108EbFOBgFCMOPlDqEa6yEc6ES5SYTkwIkWQ0oTcmcKl36jYg7xgG1dwI0oYwo9fggHeSNM7vyNaBEao8Gce/0tf+lLBlOgI07nyFvZRRx1VxMt1111XiBPpGd3D75xzzilYx+gY8REZCE/Yxx57bCkn5DfV07qLAQ7wEX+s/IeR/DDde8Jkb/SvXogPkUfc8iOv6gerjLCES3gQZfFe3UP0hIwyEC4c1CXCIiwysa4BbqwX6qU6qqysaVAW6k+4ZxXjVj2M6SPf6/+HJUu5wE6bkF5+ia/YapkCoefd2VgHmAJhrIu/P5nXUTe9zTHWAeic+Y054NiDbhRlxG90ihCRmU5W54v8FyxYUEj0e9/7XunkWQ6MwnS6CI+5GKHxS2D4jkDixkmdrU6XH4QZW8d06uK4+uqrC/kZaSMk4UqPv9OZxesoNxUISMqCOEIBMRBPSAYpGLVKH5KAG8I1Ny2NRrtGuPwiXQQob8gxzP3yK3yiR5kRFIg9RJHfxAdnefb53Oc+V7BneSDQkJjyMppFnAjUaF284oFdrDMgGKRJ2cbiRO74kZ92rDGtByXFGof61EVMGwXBij9+46713IF4F6TcGmYQfgitOnHHWpm6SKyv+ainK0g+wo+tlbGrItbNTNUqhV1fXxNphkuIZe0hn0SgFwikQOgFihnGJghEJ26EitjbJVCdXwgEo1UdMdJAMggEGTPHIjSkFSZgI2ujVyTlPT8EgNEvMot0IFKjPgQbi9mQPgHh4d+I0KjXiBdhCod7RGZkyqx+5ZVXlvltpngj0ia35zUVCNJEsPjLMmKxHUsBskXksI4pAvklgpjeCQS4wy7EgbyzeBAMwhImP7BEKvIGI+KKYIoV+rCKrYLnnnvuRoHAj/ISvo/4WGWY6mOLn/QRMczurDxIkejgVvxEDRyJCyP16awxUbfUK0Jwql0d0izP6ou0BrFH3Qnyllb5YHWI+EM0xNbJWOQa6wjgTGjE9IZ6pD7yJ05lIk5h+41b4cc6A/6ILFNl6hmshSkd3Mc0ifwpF/WwddFsvdFxT6ixIBBm+SQCvUAgBUIvUMwwPiQQOrnuOXYoIClzq0ZERsQIWudqgVmY043edbIImkXgtNNOKx2pRYQ6cSLBynaE6H+mbZ21Dp/4QDCEAfJDTMg/CFPahSc9iFR6hG10HSM17k05MOV71+7TRCAIE2nce++9G03dyAcuiAyRIwR5YQ3gDlaIE1aIUH7DciKdixcvLkn1u0WIBATrCzewQ0TERSxChA1SJ8Iuu+yyIkwIEPHARlr8j4yloy4QCAOEJ52EyCmnnFLCWrp0aRF7IaxYEJSDcJtMMSDCyQQCnJW5skbE8g4j+Taf7yPv8iUPylg64CrPyp5/6VW/WGVYYAhVQodg9BtSJkDUM5hLj3KQX+UAV2mRX/58N5XlEa51JOJijVGX+VPHCCq4iQMmyijExUR1jZ9cpNhuK0x37SKQAqFdpNJd2wh0ugZBR4n0dcw6WmQYnacRGeI3ekZIzOsIHUEiMyOxWJgYozmdPj9GcmH2FV7sYY+RFtIQVnSy0sAPt7HwLMgOYcTiPGlEDHEMbzsANRUI4pM/aYm5cKQmfTEKJ3yMLmEhD3AjipASf0hJngkGpBUj5zBXh+XGnDySCsEEz8gboiecCDZYIHQ4KKtY0U8g8IsA/RZb97iXZoRHWPHrPWKO0TWxoUyn2xXSOsUwlUCA2y233FKmRhAtEha/tQ6sL9Kg3JG8vPggYbjF+Qrig4t3Ua/8FbZ3seMGrgSGeFhIhEmAitv6FkJSXWExIUz4lRZhSZe/sCeA1T9u1D1hSIuwUyC008LSTS8RSIHQSzQzrIJApwIhRraxh17HiPiQRvwWOx3ikBqdZixOQxYINUjG7/43Kow577r/6ciIH+EJN0zPQUjeERax/7/dom8qECIe4cdctTAi//IYc9mxvTO2JkaapTNM1vU8ByaR9sA4di+0mrQRe5wpEX5awwi/0uVRPnFugnd+D8zibgHuiAlup5uOaiIQCEmjdCQtTmIxrFEWeDLtS4M1E3FSIQxZSZA3kiaAuPFYSAl3YpVVgoCSHtYuBM6iZJqBKCFOY1Gr/y2QPProo0seWW6II+FwY/Gm9BFhrA9w9h7W1sn4G9aNyepZWhDabYHprgkCKRCaoJVu20KgG4FQj6BOPnVijt/rC8/q/mJ1eLyvk04sEGtnQRi3ddJsK/PTOGoqEKaLMxbQTTU/3Y98tJOuWEBXL7uwWkyV3qnCbiIQmOmN8AmE2IpptM6SYqoFmcdxyywuRv3EFSEg7QjciJ+1xtoUVoA48ImVJBZ/InUEzrrCLcHBOmE6wvQD6wkLAyFAeLDmiFfYhAM/LCisCKbFCBJp55a/2CWRFoTpal2+7zUCKRB6jWiG15UFYdTh67VAGHW8WvPXRCDEVkaki5BNvVjLYlGk6Q4igPlfmTDvswoQCrHVkXvkb9okdssgctMNRAf/cWgRywQh9PnPf75YKUxBECOmJxC96QXrDfwmD6bKrrnmmrLmw9oEcVh/IA0sGASNtFmXYTqEtYOASAvCuNX4weY3BcJg8R/J2HtlQRhFcFIgdFeqTQRCnOPApB+7VggBv1v0Z65feAjfThGjfuTsu7UALAgsA/ww+bskidWAiIiFqYje1IBpHO7sxmCJEIewTFEQF343PSGOmLogUlgLHJxkgSNLgnQSFHEGAwuEaQ9rbFgoUiB0V3/SdzMEUiA0wytdt4FACoTJQUqB0EYFmsJJU4GAoGM9REwrme83ko9V/0z3rAWmPSyo9Dfu9Ig7PmIhJ9FgNB+LN333YU1A5EQC0jdVYV2Dv8LyPzemG8QrHiIjpjLiaGx+vReWOIkJ60aEO9Vi2FyD0F29St8TI5ACIWtGzxFIgZACoeeV6tcBtisQYq3JZOmor1+pH2DUenphvBNO64LM1jUu9Tjr617qazAinBAr/tbXkdQPZYq0t67lmChPKRD6VePGO9wUCONd/n3JfQqEFAh9qVi/3iFjcZ9R/1TnIPQr/mENNwXCsJbMzE5XCoSZXX5DmfoUCCkQ+lUx27Ug9Cv+YQ03BcKwlszMTlcKhJldfkOZ+hQIKRD6VTFTIEyMbAqEftW48Q43BcJ4l39fcp8CIQVCXypWTjFMCmsKhH7VuPEONwXCeJd/X3KfAiEFQl8qVgqEFAj9qlgZ7oQIpEDIitFzBAiEptc99zwRQxpgbnPsrmByimHyKQZnLNhO2eRukO5KI32POgIpEEa9hAeQP3u5nYFvr/l09x0MIHmbJcr69rh6hASCg3tg43KiiZ76nQtNEyteW/Uc3NPJ44wA+/YnO8Z6qjC7SXdcpzxdup0rYBeDv04ZzOdXCBBO7nxwiFNe95y1olcIpEDoFZIZzkYEdFYPPPBAOXxmust3xg02xAsfFwdNdnRu/bKppvggaSQvjtZ9+9OFpayMPll/iDxE0+TOhLhOOQ4Zmi6++ntplvbp0h3HGzvO2GFC+fwKgbjAy90OTmjMJxHoBQIpEHqBYoaxCQJBgtONBscZNmQ4Gfm2HqzTFKfJrBfthINo3BHg+GD3Ckx1QVBreN3EK6x2/Utj1q0Pl6b6pLzUrXwSgV4gkAKhFyhmGInAiCBg9H/FFVcUC8KFF17YSCCMCASZjUQgEfg1AikQsiokAonARgTcK3D55ZdXu+66a3XyySeX6Yp8EoFEYDwRSIEwnuWeuU4EJkTAtcgEggWUxx13XAqErCeJwBgjkAJhjAs/s54ItCKQAiHrRCKQCAQCKRCyLiQCicBGBFIgZGVIBBKBFAhZBxKBRKAgENcUWwVva+pll11W7bffftXRRx+dK+KzjiQCY4xAWhDGuPAz64kABN59993q4YcfLqfwEQs//elPqxNOOKHaYostqq222qpiVZg3b175P59EIBEYHwRSIIxPWWdOE4EJEXjxxRerK6+8slqzZk15by/9kUceWV166aXVlltuWZ1yyinVBRdcUG299daJYCKQCIwRAikQxqiwM6uJwEQIOL2QOPjnf/7n6sYbbyzHY7MW2PJoq+M3vvGNsqMhD+DJ+pMIjBcCKRDGq7wzt4nAhAisX7+++q//+q/qe9/7XuV/pxrOnTu3+qM/+qPqW9/6VpluyCcRSATGC4EUCONV3pnbRGBCBFgRnKD43e9+t7rnnnvKMdDnnXde9ad/+qfVoYce2uhOhoQ4EUgERgOBFAijUY6Zi0SgKwQsTnzllVeq//f//l/1b//2b+WmxC996UvVH/7hH+alSF0hm54TgZmLQN8EQtOb5JpC2O7FLhOF243fpulsdT/IuLtJ+0xNdzd57sbvTMTLJUirVq2q/uVf/qXcxfBXf/VX1QEHHDAjbuSciXirX5nublpZc78zFe+mOe3VLbp9EQivvvpqdd1115WrYyc7y33nnXcu85rPPPNMuaq0yWMBlW1XDz30UONb3SzAco3tU089Vb3//vtNoi1ud9lll5Kn5557rvF1urNmzSpXsa5evbqxX1gZ1T399NPVBx980Djd/DIjW7He9Nlpp50qn0ceeaRxupWVc/2lW/xNH/PgtuG99NJLTb0WrK3IX7duXWO/tvzJ87PPPts43RonYn3++eerN954o3Hcjjn+xS9+UepY02e77bar1DPtShhNnwULFlRPPvlktWzZsoLftttu21YQpiTmzJlT8vvaa6+15afuSJqlXT1pel209rhw4cJyTXXTNm3hpb5Eu7Cds+mz/fbbV9tss021YcOGxv2YNq2e6MealpU868fUMYtJmz7qdvS/TQdzdrPsu+++1cqVKzvqf/faa6+Sbu266bPbbrsVUaVdNn2UVfS/TTnH1eLi1q6I56aPPKvXnbRpnAPztWvXthWtNjx//vyeTAv2RSBo5BY76eiIhIme2bNnlwqKqJsWls57//33LxW0aWciTuDpBF1p2/RRSTROeWzasHbYYYeCyfLlyxv7td2MX3h1km5Eq2J3UkERvEpqdNm0rFRsmFn41knDUlbvvPNO9cILLzQqKp2IRkkgtNuw6hHo9OVZx9803chy0aJFpRMjlps+On71WtxNH52gj3rSlHSk+7DDDiudN0HWpG3xq6yIA1MVTR9tQ7qJuSbxikcZH3zwwUXANm0b2rJDoeTZIVFNnx133LGIKPW76RXU2rR6smLFisYiVJ6lG2F1Imy0aaTXSf8rv4TN/fff3zjP+ICQ1Da066aPNu3ppG0oK/7h3bQfU1YGWfDqZIAWbboT3th9992LQIhtyJNhho8IdAKhV/eo9EUgPPHEE2UP9de//vUyKpjoodx14k07A2Hxp4F0MiINvzrPpgQv7m7SrRPVIXWabn7h1Um6+eWvaScWeZbvmZbusF51UseUlTw3Jdmo6yxV4m3aEfE/U9OtTapfneS5F3h32qa7Tbe0d1LH9EXqSVMBGnWsm3R324+Ju5N0y3O3/Zj8d4L3oPvfTtOtrKR9ur5I27vppptKuXzxi1/syVXtfREIRmw/+tGPqm9/+9vF3JlPIpAIJAKJQCKQCPQPAQLh6quvLhalr3zlK0V8dvukQOgWwfSfCCQCiUAikAgMGIEUCAMugIw+EUgEEoFEIBEYRgRSIAxjqWSaEoFEIBFIBBKBASOQAmHABZDRJwKJQCKQCCQCw4hACoRhLJVMUyKQCCQCiUAiMGAEUiAMuAAy+kQgEUgEEoFEYBgRSIEwjKWSaUoEEoFEIBFIBAaMQAqEARdARp8IJAKJQCKQCAwjAikQhrFUMk2JQCKQCCQCicCAEUiBMOACyOgTgUQgEUgEEoFhRCAFwjCWSqYpEUgEEoFEIBEYMAIzWiC4uct1rHEpiytKXT7hroamd1e7jMKNcW6EFF6TxyUf/Lo5rpOzqt96661yGY0bzZqm201zboyLK0ubpBtWbuoSbyfpFq9LP9xS2PRRVsrPDXBN86ysYAZv8Td9lJUb4Nzg2SRuF1M5k1yjcVNg00e65dtlY5NdWT5ZmOqH2xBh7Ra4po8bEWHV7lXL9fDVMVceS3cTvGGsPcE5n0QgEZh5CMxogeC+9Xvvvbdct+maUXeBy5BrLJt0/IotyFLH31QgiBNx6Lybdvzilm7ks9VWWzVOt2tCkY5rR5vmmbDhF16dpJtfWEl30wfp+MC7abqVFcykuwlhRRqVlZvjOiFaeQ4x1zTPbq5EtAizabrVDyQPa9eLN30IKmXVCVkTNuoZvJu0Df6IdVfLtlPGsCH4Pdz7yKt6Ot2tcxPhoYzVa2lvelupfKof0tT0tlLp1h8p705uCJRu9QN+naRbHSG+m/rtNt0GGXDrJN3KCWadpFuc6ol4m5aVekPIynsnVy4rK/nWlzXFWxmLW7yd3FYKL/46uQFTmmGuH5V219C7Mru1nc5ogfDyyy9Xjz32WHXQQQd1RFJNO9l0nwgkAu0jwFKDJPfYY4+2BMILL7xQ/fjHP64uuOCCQhYenZhOsJMOFHHo8DohjV5cITzT0i3PSAteTclOWXWDdzdXc3eb7hDrndSTbtPNv3rSCd7aBn+dpjuuFDfoIYZ33nnn0RQIBx98cEcjo/a7unSZCCQC7SIQnR0B30QgPPPMM9VFF11U/fEf/3G253bBTneJQBcIaKssCJ6JLNgjYUFIgdBFDUmviUAfENDxpEDoA7AZZCLQYwRMM6RA6DGoGVwikAhMjkAKhKwdicDMQCAFwswop0xlIjAyCKRAGJmizIyMOAIpEEa8gGdC9mJeOlbJtn5vJw+d+Gkn3HTTewRSIPQe0wwxEegHAikQ+oFqhtk2AsgiVqFbOeu7T6x6biegCCO2v7Wzba6dcNNNfxBIgdAfXDPURKDXCKRA6DWiGV4jBJCF/eQWrdkXb98uweDcCPuI/W+/uBWzsc+eAIh97H63Gt42OOc92N4T+3gbJSQdbzYEUiBsNqj7HlGI87q4b3KOR91/Cvu+F1fjCFIgNIYsPfQSAYfcrFmzprrnnnuKKHAYin23TtlbsGBBtWHDhnJAzrPPPlv2zBMDDj7Zf//9y3vCYO3atSUMfggHZ184ICs7nF6WVO/CSoHQOywHGRLx7pCt9evXl5NLHeqjzTk0Sxsm1rVvIt47wp14iEPMDAy0d1tYHcbjncO6+G1y6NYgMRjluHOb4yiX7gzIW1RAHYRDrZxiGNMEBMABBxxQrVixolgXnnjiierAAw8sp3vpaPbcc89yuhcB4Z2wdEI6KuJgv/326+gEyBkA24xPYgqEGV+EJQOsfdre6tWrN55KqW06In3+/PmlnTpox4eIJ+gdcuU9AeD0T8Je+ybsnZyqXTtds4kVYjTQHL5cpEAYvjIZuxSxCDgW28doIo50ZU2YO3dutXz58jJKcWAH8tfZ6ExYC+bNm1feP/zww+UegTgy+LjjjisdVHYyw1mdUiAMZ7k0TZU2yYK3bt26ct8M0tee3f2iDbIwaK9PPfVU9eqrr1aLFi0qVkJHCBP6Tz75ZBEY2rO27zAefg877LDiJp/BIpACYbD4Z+xVVdYX3HfffcWCwAKA1JG/6QQC4aGHHqqef/75MkLZaaedisXAYzTConDXXXdV999/f+lYCASdzRlnnFHCyCmG4axiKRCGs1yapsrUgbbporC4YwHJK19tk2h49NFHqwcffHDjhXGHH354adv8sg4S+IR/XEp36qmnVvvss0+K+6aF0Qf3Iy8QzF07SbF9xTkxAAAgAElEQVSTC4P6gHcGOQECBAIRYJoB+es8mCGNPI4//vjqkUceKebJk08+uYgEnQ23Rx11VJlK4NcIxu2R5jHNXx5yyCHlXVoQhrPKhUAwP93uZU3PPfdcdckll1Tf+ta3sj0PSbEieeKcuNdeY3qBJYFACNH+ox/9qDr77LM3XhxnKkHZP/DAA0UkWJzM8qB9a+fqRK5BGHwha6exSHGi221n9FHL1CtiYdZKgTD4yjZZClgNzEXGXGV0HkYUxB0BYI7SmgSEz6wZCxZZFFRg5slbb721CAoLoJS3KYfsZIaz3HU8cVlTuwKB+5tuuqk677zzNl7WNJy5G59UsRoQBywIrobXdpG8gdmxxx5bLvixrmjp0qVlykEZuhZ87733LiAR+oSfQQCLIBIi7K1R6OQG2fFBfvPkVDvVt3omugV5xgsElTctCJunMnUaCwuC0YPH/3H7mu8sCQRB7FzwjhsfOxlintJ3ooEFIa5nzemFTkuk//46tSAYiX7zm99Mwd//Ipo2hjA/Ewem9bTB2JbsN+uDiHcCwToFYt4ggMgnEIgJBGMnw+23314deeSRZX2C9ywR2X6nLYK+OxhpC0Jc95yXNW1aj+pX48bpg+FCo/Rb/UTD+I2beqMNd/E33gk//o8dCRFnPb54Fwcj1cOLQ5K4mei60zhIqb73OuLQwdTTH+HX0z9RulrzFu5bMYq0taa7HmYdwzq22en9Co1cg9Dfvj3aTP2wsXo7iHYTbbW17kf7irZf7zPq/UE9F8jeuwi7tS+Jche2Nlq/ypiQIPgJjMnaSD399fRFGur9RD2Mel8UbiOsaLP9LY2ZG/rIr0EICwLTVT6/QsBonKmPCS8avr++U/BM/j6Uv4e53jtz+/wyOcVd9nHneGxLIso8frcmwCLDuEOeCVJHYKShPIwmmCCFbxThXQgCnY34mCM94jMNIU3WKHh0MDqU2GMtTmH6zpIQHZI0W6MgrBi18CddTKTeSYf4wjIhDKuuxREdmTlTnZgwIp3SY/eFrVnSKC9PP/10+T86H/H4DiPx5pMCoZ91QF3T1jym2WIdjjqt3TMVq8fR+aun6i1/rHXqO7d+i7arXXmM7PnzXXsTFvf6C+2H+1ZB7bvw+NFeWPi0t5gu9E670P5ZDH0iDdxrd9GniCNGta3CX9vllxv9ibRq+9G3yU9MOcbha8K3QLI+qOhn2cy0sFMgzLQS6yK9ClvDQPAWBmk8Giey9htSZRZEmBorgoxRgXlBC46QvkWCGrtG6ORCouLEE08sjc+iIw1RB2Re0UJCDVBjFa4tTToh4Wmc++67b+kshGcuMjqLMEUuXry4pEXHJl4dANEhPPGKR2cY5x8I39oF5kodn//lbdmyZSUepk3xh6CxRuXuu+8u26rkBT7SplNatWpV6TjE6TuzqbwI28ptv0kbEWpLJb/OXjDfCgv46PiYVuXrmGOOybnzX9fftCB00ZAn8BokHNt8tTXt27qdENvq5y233LKxzRIPxK3HwWLaiR0H2rn/nTGi/gpHW/Agd21Pe9P+tCNxr1y5stT92MHgt5hu0GfoS0wzIHEC2wJGbcSiZGFxqy1KkwGAcLkVrnanDYpX/0QA6CukS9vnTtuVzxD6wtKvidMggH9tXBjC40f7veOOO6ojjjii+LPuIYXCppUrBUJv2+nQhhbiQMPQKJFzbAnU0I16jYIRNvGAoGM7IRI855xzioCwn9mZAzFS0CiRrmkc4dmuGJ3SDTfcUMjUYUc6A4sI4zQ1HYI4NGJurGLWieigdEwatQVMhAd3DlNxWpuGjPjFId3i1+A1dnmUZp2GNFn05Hfh2G+tk7B9SieHtBH4tddeu3H0Iw/C1EHCx5oG/oySjJZgJ52HHnpowSisF8KLDkecV155ZXFPiHATh8JYtKWDyictCL2uAzFC1+bUc9+1W1t91UMCQNvTdrVFdVbbY/Hj3uJeCwuRObcEsLqKrLm5+eabN56CiKTVaXVb21D3L7744tLO47t2p62JQ7gGC8S19wQ4QtdOtXfpIgy0N+H6iNfvP/3pT0sb1O7Ep68wQNAXaPeRTmHLF6HO0uhU1rAWGlwI7+ijjy7tEgYx+Lnxxhs3DlLOPPPMkt4md8D0uhyHLbwUCMNWIn1Mj07DRwPSwDQWRHzvvfcWMjUCQJxInhgwMkb6OpMLLrigNGiKPsx4Tk/zXuO0U0Tj0sg1YA2XIPjqV79aCBdJ+6hwiFmjNRJgYRBnEDABIk1EAJL23ijAKF/HpGEb3RgN8Ccc6ZdGnUcctgRGaRKWvPInT9yHpcT/Oj4dgjB1jKYhYCGvOiAdLjESJlh5D4EQ6eQ2dkyweFx22WUlnBAIRkPcGqnkFMOvKnhaEHrb0EMQGFn7qHvqnO2+cXSxNqQNEsHaLQGgnqqT6rz2rC1rHywQBg3aFHIlpOOcA+2OX9Y7fYa/3//+96slS5Zs3K5IIBAC2uV1111X0iQdwmY9EE+I/tjiqB3pE4Qv3SwE119/fUlH3MvCCmcgc9tttxUAiZNo2/Ksj9AW77zzzmKF0K/w73/iQVotiPTXR770JQYe/sYaiFwr9H/tFK4efWArLjN6F0MuUty0E2Ji1HARJhMcItdpaDBGtyeccEJpnEgRCSJ5JKozZ0HQYDU2wkFlocR1FEgTiWqcxIcKpSPy9/zzz9+4aAl5+80oX8PW8WikOhJxEBfiEF4sQjICss1RvKwb/hoZ6bhiC5W4VFSPdywQOg3CRKdDaPgujcSJzkpnFnOUvovbKIpQELeOTf0xghGeDs0jvYSHw5mkVQcLD2kTn7yYYtAxwUKHo3OCO7GTAiEFQm+lwa9C07ZjbRGBz4Km/qmrnth6GKcWcq9Oazesgdyp74QBwibKCWf9gDp+0UUXlbqPfAlpbYTFwF8jfeJCu416r905z0DYyFybF452xZ3+RhwGHNKqXWvn2pq2JA5tRjvTV+irtDNuxavfigGOtsufvkWfwh8LAjHCDWFCEBEzrBr6O21efgwQtHv5JJJya2VOMfSjfc6IMGNhIYFg7s2JZhqXhkq5a5gEgsajoTEL6jAQH/Ochq2hafAaLGLWsHUoFD+FLmwNGtHqjKhy8XLvNx2HkQMxwZ9Hx6GD0cA1dA03hIkwpYGZUcdAtBABOjQEL75YxMSUqQNByESBdPPnf2HqMMSv45Me6QzBIs9G+MKSLgKIqBCmTlHe+Y3jn3VWOjsmU5jonIkDZk3rHQgbgijOlxcWvFMgpEDoR2cRRxprH+qy9qNeqpPal/bGIsakH8eVa2vaLxI/6aSTinuEvXDhwtIvxIVowtLmhaOfIMxZE7gjuIUbo8xYq0M0OBhJu2DhYxnUhpC1cEznCVf7jbMTnHEhvdq2NAqXsNDOiXv9hn5J22IhiPUR8stfDA6QvP6EW22RxYGQ0b71b0QHMSQvxLyTG7kRhzzn2Sn/V0NziqEfrXWIw1TgyMpiQqY+3zVehKjx6mhiYaJGH+SHdDUipIcc41plpMns5J0GqbEiUeTrhDWNDTFT6Doijd7vBIeOIczNRjvcarQ6Dh0XghemTo/Y0Lh1OLFaWZoRtDQTAT7CJHikQScTUw7yFCMO4gDpx9oBnRB3YWLUIcWuijhTQedDLEiT99IQC5pCaOgApYdb86jSEWZQeWIeTYGQAqFf3YO2gdi1Z2Jcfdc+tQPtTTvS7g0EtGfuEb86zbpFTGsn3BvNE+fcagtG7EgfEcedJwSCtuf3sE5q/0hZX3LWWWdtnKoThnQZwXMvbGIiFhnG9IVBh3atrVh7pA3pP/Q30k/o6G9MDXhPbMgrYrd+Qj+jjRE6+rerr766iBHhsxToX2LhI/+soMSRNi0/+o9cqJgCoV9tdEaEGyP8OF0ytgTpUPyvAesokGzMz8uY7xpaLAhEiLENKhoVvxqr7xo/9xoxtxo2vwSKUXocclTfriQecXOn0dbTVL8CNqYgYs+1TiLcx//CDxMo8eB/eY58hV9CSLqlKUYPMApRId2+61D4D3EQZF/f1sVPTFGEZcNvcK2HPyMqSh8TmWsQegtuiGRtS/1E4j4EOZGPmNVzQph41Sa1CcKbWNA+1VECV5tFzKxxIfZjV4TRO7fRruvnjajnRuaEBnfCFaY2pS0Q4sJU9tFW/U486y+kSfoIF/61Y35ZLPwlvOVJXon1uLwt+gxtWN7k34CDqGAxiS2V3kVb5BY2vmuX0iTO2LbZ29KZuaGlBWHmll2mPBGYsQikQOht0cUaBIRHGMfZB2ERrH9H6nE2R1gL46yAEPxxKmKc94HIw99UI+ywJBD29d0AkT7CoG7CF6401H9XN0Kgt7qHWuTJ/+KZbEGhcFvzEaI/pxHar39xF0MuUmwfs3SZCCQCXSCQAqEL8Cbw2mqFi0O6YntzkHW4q4/8I7jWk0DrfuLgL26nOn2wHn7r6YzCaN1CGNa3VpKf7Hfx1/M6FdG3pmWqMHtbGqMVWgqE0SrPzE0iMPQIpEAY+iLKBCYCBYEUCFkREoFEYLMikAJhs8KdkSUCHSMwsgIhr3vuuE6kx0SgrwgQCJ1c92zfujM5LFjNJxFIBPqLgHY60tc9W+3q0I1Ysd9fODP0RCARaAeBTgSCVedO5fviF7+YAqEdkNNNItAlAiEQrBGxdTVPUuwS0EF5r2+1k4ZRPCq0NY+jls9xWkTV7RRDCv5B9TQZ77ghELfsjuQuBvtgR92CEMRSJ5hRFgixOnnULlWxyjtEzyiWX71jDQuCbW4O2Wonvw7RceTvd77znbQIjhtLZX4HhgCBoK8dOQuCU73MWTqwY9TnLHW4ThJzyEjceNhOpzuwWtdBxPIYV7w60CQOX+ogqKHzYr+2Q2bkS0Mc9SeOBnZKnqN126mrTtIjEJzj7zAuTxx2NZF1aToM61sBO/HfTdzd+G0n3fb7x9kGdWzrWxmnw2ei992mW5idYN1NuqfDS9vzTHYPw0RbQtvFrp/pni4N3aY7wneuBg51SFXrM+Mva3JkqA5o1AWCgnM8sdPFXErSToc7XQUbtvc6FiezOU6WCHLK26jk00jaqXbyFRdDDRv+vUyPsnTqHxJzul475ajs3Q/Cb+x/568TwglLTaeEFf67ibsbv1OlW7hOT7S4TH1qPd67W8z6le7p6le/0q0eypNjlierh53G3Q1J96KOdVu/+ScQHMc9UX874wWCewOcxT3qozIVPG46dOnIKJ4UJo8EkHw6NpWibYdYput4huE9gWBBrRF13FExDOnqVxo6WYPgeF9WBGUfJwP2K30zOVyiC+mxKLo7IawtMzlP/Uq7emjA4UGCo9hvdoNdDMpGcophnK57ToHQTTMYvN8UCB+ZthCcn++sfh15Xss7OVwpEKatShsd6DdNRcOMGT0FwoexG9lzEFIgtN9QZoLLtCDMhFJqL42dWBBSILSPrTMm0oIwPV4hEPxNC8LEeKVAmL4eDb2LtCAMfRFNmcC0IKQFoVc1OHaIpECYHtEUCNNjlAJheoyG3sU4C4SJtgfGVsjJLpaJ91Gwre4izMned1IhWtNZT6OV1LkGYWpU04LQXq1LgdAeTlylQJgaq7DacjWS5yDkIsX2G8uwu5xoikGabX30se0xFq/VF9e4Mra+mNE8I0K26C3OUkDeVuvGNi7v+Am3FnpNND9ZX9E91YJJ7qTRIstIJ6uBFebCFb+6agFeLlKcuCZuToEQ5dpappP93m7b4b/fC2sHJRAib1PlcSL8JnK/OXBKgTB9rU2BMD1GM8JFWBBsbTrggANGcrFNq0Cw7cY2m6eeeqp68MEHy4FYyNeWVp/bbrutEPC8efPKXyQsDDsF3nzzzTJinzVrVvndSma7PxA0Ilq1alU1e/bsascdd6wefvjh6sADDywCAsF7b1eMhXJvvPFGCTtWijPH+R5ig9AI8cHt8uXLyzZGbiy4W7BgQVHmzj948sknUyBM0dr6KRDCmkPEKTPlQ0QSnARmCE9lKR3cx9bpEH/cx7XIIQL8VSfVUx9hhfgMcdjrA782l0CoW9kCA3/V/fr2Pm1CW/G7hz84B151kR5tx3u/wx1eUQ79wMoiRenONQgfbnwpEGYE/U+fyHEUCDod27nWrFlTyFZHbP/3SSedVPbs3nfffdXdd99dnXjiiaVj9k4HdPTRR1dr164tHT3S1hnZPkdYEQmwROT77rtv6ZycT+Cdkf2yZcsKkR9xxBGlw7v11luLeLDlUoe3YcOGQvLSJj1xChmhwWIgPUScd+LV8Unf3Llzq/Xr16dAGJBAQFrOWVi5cmWx5KgHFjl71ANnNShLH2JU2R1yyCGlzIlFZaseepw9oD4Rn9ttt105KVJYRKk6pO6pY35X7q0Wrulb+/Rm4X4vUpR+bcM6BxgQueovDENMa2/wuuuuu6qddtqpCHU4wQQWhLd2ShzbuoygtRPtB0Zw0Y78T4A736XXOw1yimH62pZrEKbHaOhdjKNA0KkTBjobB+jobHUyOhGdlkOyVqxYUTocnZJHR4Ps77jjjtK5GdUZ0a9bt66QwJw5c4o7nb3/iQMiAhkY7evUiBJx6dTEf9pppxUrBsEhHp2e9BAQyIUlQsfJ+kC0uHRIpyh+cfCvM9QR5hTD5E2tnxYEdUk9uummm4pAQHII8IUXXihEf9ZZZxVSV2bqhjqhPihjpE8kLF26tLhduHBhdcstt1RHHnlkqYvEhCPflTurA/HgN2RIzPLby+11m8OCAC9ClyBG+uqztvLaa6+VfBHQ6jycCKoQWuq5NiqNl19+eWlX2t/1119fnX/++QU/4RJq2qZ2rL0hKQfewVQYvcIrBcL01JYCYXqMht7FOAoEeTY1gKgRvM7GoxPWMetkjGKM0gkDnblRiNE+gYAQvCMMWAV0VDohHdIDDzxQyNrIiAjgX6eHxI3O9tlnn+LHyBB5GD0Jj2VAh89SgRAIBIIhrAaIA+mIi6hYvHhxEQieXKQ4dTPrt0BQ7spHmSJ9Za9eqWef+9znitBT15STuqROICuHESHJK664ohAl8Xj77bcXMmOJUP7ukeBXfUSab7/9dhlRH3PMMUVU9orwILi5BIJ8aGOEL6GrfNRtOF544YUlHfCTbxiwBsBH2+T30ksvLWIKlqwMrvGGnbZDUMFKWSAo7UdbOu6443oqqFIgTE9tIysQVFZzyUuWLCkVs5OHgkUQOgsdP1WrQcSKTu809njnvYZARVPTRiE6FpVdJ0I9m59T4XUKOhmNwIgiRp+TrbyfKv3TCYSYS5J2/yt0f6UXoUpjdC7caMDMgkYKOkF/ER5iC/M4d/zKl07BX3ny8X+QJUI1MkDM8oqUfY8FgN6LA14625i/b81v6xoEZUAgsBTE9IF0I/n/396d/FpXVG0A30xsscEGRUEjAiIYBew1KEbE15gYY4gTR5rokISRiRP/AR07Mg4cIAMcKCIEeTHEqGCDbaRRFIwdCthhoiH5vvzq+x7YHM+9pz/7nLPXSW7uvWfXrl31rFVrPbVqVW3GhCG3JCDnQJ1kceLEiVYtgwRzslIPg2RGeM455zRMzAbJEAaIAD1QL1lrJyNnNsn4XXrppa0d+qOPSIj+J9/A8xhSORLqMuvyTPfSTfVySIzpqhEEcvJjlspgM9xJvNQmzz7zzDMb3v6HW9aMyVBZbdEfIXDy1Xdl+2vL6navcPoy68JxYv0xMWt85phthG7dByXBjO7cfPPNTZfJQdtEjPQ7r5imvzA03uHE8SOOHOANN9zQMOHkRCGyfHDJJZc0x0kmxl1OhLzsssuarnCI60xc3AZBiA3RT+OIHTNuYAej97///W2csBn0PO/DQaKdbKu/11xzTbN5xqdx6nuYwsSYzntXYnuME1iT/boIlX6Qi2csmoPg3sndTmSrj3lXDEyCT3IptH9S3tOOcp48plldnpmxm1wZ9WsHe9sfF8kLUY97fBYdq+rgq/w+uKOWOW8D3CxtGYIAFAOeUafI/mdEOEbKzNF9//vfbwOB0c26I6dC0X/2s5+12aZrYcIYM8OrXs6Gw1XO3+4xC+Y8FzUYfYLA0U3LvtZuM92cHKb9DD0HYBZrIHN6ZsmMoh+GkmOj9PDURgqpHKUUimUU1BujQUkN+hAJIUaDT13CkL43e/IdXDhn/5vVmyFQZs9JUlMcxyRBUM79MIYnhw47TkvfGC8hfc9VlwFmxubDeWu3QcZ4WRIgJ/dzqrfffnsjGe7jELSVDtAFOJkZ6gfH7xpikBA0fdM2+pBz3kNEYM/xKA+L6CZHvGqSIlnSpTg7Tp58/M/oZt0XDp4f8sORGR+uIynwIGt4wCC6xZFpO1nrj7phDutl9JXc6JLnzXO//ukTErkJgmAMSmzl1IxD/bac4G9YkI8yiAr89NvfxrN+kDU5GtP0jo1IIqO+ukf76Rpja5ySy1GEeBZhOur6NggCHaIHomDa72/6ZIwYL5dffnkb1/Cifwhxkg5NRmDF8cCE7iHk73nPe9q4CTEwFtlvJMwYNi7p3DqP2V6VIMDBuIGDPrEJ+smeaT87mePB2Q06zD5lmQVGbBgfkpciXXTRRa1OOpMJiTGqrfQJzvD2AxO2LzaJPrlPfUhsJqmeSU/Tvnl1KzZd+YN7m+OqJykCB/MHMsNI0TlTgjTT9LHGzfH67vrrr28Gn3IQIiOBUDAUBM6YuEbZKVMypr1xklIxGELX6l6UIR8XQXBN+xPtSLiTwTfYXBNC5bC08aabbmoO0ADG2s2AKHKYe7YV6rM2c3qMqrrg4XkcPOU1+EVxQhg4IMaWwvqOsXSvmYGQo767B2aMSv8zSRD8r0/6wSgbPEn4Iivy1wfX4Knd/nYfmeoruZCVQez7OPuQobDwhIENcKQiWxXJXt2wSNmsKTMeyvpeGz3TDDJv29Q+xjIzglVzENRtaYQc9J9c3vSmNzWjBHMETHuSUW8mfscddzwetmWMgqc+kQuDrI2+Z8w9IwRSCJ2MliUIiZxp27wEYVNHLWdNHR4wMg7hpo3eHplkOcbY93SG7tBh8vaTTHs2AtZyXYx19bknybBwpg/uV/c+5iDQaX0yhvzQlSQJG3N0gz3J7NP4gaXxBbvsaoCD+0VuklwMJ3UbW8al34myqHed5FA/lt3FkAgCh8zuIQPGijGRnWTsJp2lG4myIrjGlTFmIoJQwYYdQMhFOfUfAcg7NeDmukgNneNbTE5MON1Pp+B38cUXN71yzZgiA3Ug8nI8jLVFfcvBLjGsgyBQfAog+5ySM66cJkZHsa1ZEgAFUMaA51A5SEaCQeFsEQVAM7KEqm0cGmF95StfaY6LcyRgDnIegznpPLHIadscKTIjZQZE8TJTNOgMNtcoT2YBX//61x+fGSI8lB6T1wdOTn3aR5kxVgrKMeVFSvrICRokjAaC4J4wavf42yzKMoC6DJovfvGLHfZsxga/SUWeJAgGYraiTYZp46zVEYPiu4Tb8zpc37meLZBxdurth/1WDWuGpIUskF3anqWWVXIQ1JvDlhICZ/hEhtSvv2bH9CPLZJZGfEdn9VVYl4zJlXyQYzKi664hfIxgomH0PGR2GX3dNYKAKBsbfjPEGTccWpbNXAuGdIKu+90PG9MlNiNhZv8bY8mHYeiNFY4wy1+L4jdruXHTuxjyfH1j17KFk33JbJM+6qPryhlbbGjw6o/FEPJEDd3D6YXwZ6skvBZ1cLOwWpUgiB5YItFf+mDMsPFskogefSFf+q4MjD74wQ82HePARamCj1m+cWUcWgZNhCJLIDC0LGk8IhfsJVnTS34pidUipMryX3A0TkVoENZF8SuCcIQGMRCE6kcIDNPn1AmQ0TTIv/CFL7TvkAAOllHg4BKuTNgak8zrVzG9DB7KxSglp0GEYZlzDGZFEFwX3vQsSuO39mcGLNGO0mkvMmBga691UrMpM32KqI8+BoF2cvYU2TICkmNAexas3AcPoX73MrQxXOr1v4HgR3tuueWW7uMf/3j7nnL76SvzJEHor4kddaCNtk4zvurKp7/WZ0AabK4n98IA8axVQ5uTz8z/nr/KUcuZydA5ciIj/WB8bOnUD7JCQDj4nOeAjJq5id6YodCLkydPNpnST8YcUcgaMeNCXzi6JG1OO11tnvBlxhY924UIQl82IQb60c+YD+lMjlCfQE4aXfKkL3nVMnnkvsgrOE3q+Tz4zXJ62yII+pJIGQxytkO+59j6GGRyke+SM0MPMmGBkzp9+udP9P9fFaPcv2oEQTtNgG688cY2kTJm2AtjRhTUxMn/fITILXJE3y11utd4RRBE+kzg9NekzPhzL8IBI5NQky5j3FhmK7OTBnZsO5try3TOVGGTPVs5kRc2d9oywSwsiyAcQxDCwAiGMUwoTWjdDEu2skgCAWd2YdaMQBB8tgAx2hwuR5Mlh6yb57AdDpVBSkh8luDmjSAoZyBQUM7a8xAR5ITBT/IeFk+xMersQza75CQQnBi8HE5kli9UhiVTZo4HOaJQBjlc9Fe9mK0wlzZ4pnLw1BaOTF2iMdYu4eQaNj2ZdLPJ1z3HqCUTO0lLZgfaa7BO5kUsIqPjyq6DIGR2gmwlGpBtn4ySsCO89YMxIxvE1+yCwyd3IV33kBP8kQhtE2mgm4wPg8TQRIbLzH53kSAkChOnQQ8YY9gk/yJJi/TT92aD+g+PLD8YL6I4omLGE7mQiTpymqZn0CVjYtXo1KReqXsbBCHbEPWPfWNHRJ/0J0nHnB489NX37CgnypbAy730MCfe0s1EW+DLhiQqAfNpkcVVxuCqBEH72S/2MUnabB1CgFBbUoWT/sYHiC4Yc5w+G6y/IgHGnA8i4CMKkLNU4GBcsn/GpOe5F5awNa7dlyUGxCPJ455tLMslW8a3FEE4hiCYcRnUOXGPIhvsBEGgEQLF59gYCoK0vsuY+D+OUD0UkrGO0vsdJSE8AyyZ54so/nERhBAESsQJUP+CMNgAABS6SURBVEgExrMpsHYhDAasWUAycbNX24wSMaKM+uM65TU44JAkQWXUCRPGkIHMgTOUVP8QD1jFucDX/QYTB5Y1fmSJce7P2icjCIzJMs7pKFwzQ+Qkk1OhHwwAmRhkDNQ6n5m2rIMgZM22fzgT+TLM8BZBgHXyYJRHynIAjesMERKQNXN9Jvec85DIlzpDPhjyRTHZRYKg78nKJ4/sbDEO6CK9t9acJQg6m4hMEsfgQ0d8b6xwBsY/W2EmyHHEaRjrOVRrkbE+q+w2CIJnhNz7O0nMOVyMXeAQs6zJeRmvxj9HRfeSh0W/LF3Cgr2gSzDKbJcclGGzstwzC4N5r69KENiyOH4y1k5tJH/9tOzLhmT3WLZMwwkexpUPPVEWTnQENt/+9rcbQfCTSaS61GsCoEx2zLHd8MryhEmN++hsdsfRy2VelV4E4RiCEKeeJLRsV8R6GdEkmBGg/7PVLTMKQsr6eBxQwpYGAvBzGpn/CXGVXQzqM8imrTMlfJ6wXyIe2sMR5+hTf+svwqNsci/Sbt/BIVszswUu64Y5StZ9fpRLIp9rBpXBARf/u+558GMolEUmkvncDwduOoIAA0Ys6+/aZOAiCGaDyF3Co/MaoXnKrYMg9GensMuMVR+SYAhvusmp+9vymWsxQgxOZtLaTS6ukTnsk5uRcK/nLHMS4K4RhPSP4c2aMbJgV43xkIRaodycjcHYugYf1zky17IeT2+QZOTCfTBXllPQf1FI432dSXeZDGw6gqD9xqqZKj2iv0i1SKoPbDi4bMFLLpbywut0SRt9QpzgwlEiCjlVlE000VIfsrrMDPi48bcKQUhiqzGRpF5jy3hCmNi+7BLLMmWWVOkLuceG0hsYJdGaDtIZ+pIdWMrCAwbsk+fTNc/UBuOdPrnX/+xs8l7cx3a5vshSaSZlMKyXNU3RpKxN9tepMwinKd5RM6nU455+Xf7u76VddJ9q33kySMcRhH4bJvswaw2/3+asI07WN4lRH58QlvR18v9JLFNXv13biCAYcFi+2YDBafkkyx1IIYOfPcXzOP55y6xCECLLvlwm5Zn/+/grf5R+H6Xbk+X7+jxvX9PeXUxS1CazV4aaw7duy9BnTVg0iUHO0dzZNqaMpDHlzAKRfE6QPlmGEx1LrgXHKFphJijSuAzBmuX0tkEQ6CynHvJj3ORY8yxLZeuf8SRh1rq4nBeOkuOHF1xgqiwHBr+ci8ApikKIaknC26WjlvvjJ0Qn9rs/TpIAnZwV12L//J3E6P7Y7N8zOXb7uS8Z80fpQ+pxfZmlrCIIi1i1HS6bJYbjCMION3+upm2DIBhQtrox/GZ8Zjx5PwNDNu2wkLkaP6PQqgRhHW3YZh27FkHgyBMulj9AD0QQzGhzPLcZs5kt3TBLM6vl6BlsjkvOEUJpfdl3HF1ODrQkl7NFzC5dN5NW97SDc1aRxTaWGOCTM1MQBP/7LSqC8HDm8INpnCVc7PSy/MBBSu6DJwKFTMETZvDN+SWwyftNJNpt4lCpZXcxrCKjfbm3CMK+SGpGO4sgrC7IzAjMbPxtlshxCAfm/QtyIxbdJjRPy4ognDITJuHaTZ6DYLbKoYki5GVeWeOVRMaRmM0KIUsuFGXg5Dh5SZ+512zYDJmjlN+BVCKdHKq/heTdg3zkVMtFcziGjiAgBDlNU7g7L6CCl6WAJC9nh5bIm49kV4Sbo8+x04hTlh3h5eNsGGUSWUDAcq7EOsffKksMMxX2AAoUQTgAISZkO2uJYd+7uo0IgmeIwnAW/XcrJE9i2W19s7AvgjA8QTCL5exEBbKbCFnIYWfJOufszHTpSbYG57At32V3Q845cE30gRNMHpCwMrKwzwRBf5BoywT6nHdOIA92akl6NYaygwkGiIRIAnxFHHIWCKxggwiohxySv4CIiCpYe0fEiiDMsibru14EYX1YDlpTRRDWB39CogzdpDFa50yv3+IiCMMSBLLgrJADMs/ODDoQcsiB+ds1Dj77/yeTfLP9LycrmglHpyZzkejTunVqG0sM8MqJh/qX93TAMLs8XPd/Th31vf+Tc+G6j+/hnO2RSZSdzHFSdpEEu3ksQkUQjkepCMI8WrQHZYog7IGQjmliEYThCcJ+a9ATrd8WQTgEvIogzJZibXOcjdHOlyiCsPMiOraBRRCKIKxLg4sgzI9kEYTZWB0sQZDQJAvd4RHLvM1xNnS7U6IIwu7IYpmWjJEgLPM2R4mCkydsLoP3Id8TgiB3AlaWROozHYEiCLOXGEIQDu5tjgiCJCL7bosg7L+JyHqYPdV2Fqz7JMUhESqCMF8EYVOvex5S9ut+dhGE+RHNbqW8DGmdCZDzt2J3SyZp2+9pLxGUb3PDDTe0ZNQPf/jDazkj5pT/mZZ9siJGsmOvu+667hOf+EQ7pMRn1bc5rtikrd5eEYStwr32h42RIOzSQUlrF+iAFdYSw/zgVwRhNlYHu8QghJnDTvrb05blJ/0TrGbD+kSJ404YnKeeee7XJzPrHJQ0eRLhMn2ePMVwnrb2y8zT7qPqnHZvIghmkSIIRx1atMpztWeV+5e9N0c82z5nO9cyn2WfPUSfydK2wWxtmyeTf5PnICyD967eUwRhfskUQZiN1cESBKedOTY125ByCle218yG5okS2fpkG9Sizpbxsw0o+3oXea6y87bbQSwOYXGWeT62DLlfuxf96DPslm13Xv1sdrzoJ69+nWy3tuTAGdunpn3y2tm8R2PRZ5OVkOMy7c4WLnJY5MNRIrT9V2Yvcj8ds9acrWSL3KvsKn229Sznys87NpSDsf46dGgeggBTJJh8173dbVG8drk8bJ054CAipxNu6g2ku4zBvG2DlaVoH5OOefRw3roPqZyjxA9uiSGnfcVR5JzsvGt8EQFSnLzQaJH7lM29njuvAe0/Y952T75DXR3u9WOGuuhn1XbHiC+D91Hthl9en3rUYPa9+/vnkC/Sd+2OA1vkPmVX6bN+5cU9y+iJe/W5/26Pedu/Srujn4vinRcdzfvyK/hIOr7mmmsaaa3PdAQyRnLmQK2rH68peUnduo9xPgT9ZEsdm/2BD3ygvZNk8rPXOQiHIKDqQyFQCDyBQA4nKkwKgUJgOwjkwK9pE7IiCNuRQT2lECgECoFCoBDYKwSKIOyVuKqxhUAhUAgUAoXAdhAogrAdnOsphUAhUAgUAoXAXiFQBGGvxFWNLQQKgUKgECgEtoNAEYTt4FxPKQQKgUKgECgE9gqBIgh7Ja5qbCFQCBQChUAhsB0EiiBsB+d6SiFQCBQChUAhsFcI7A1BeOCBB7qTJ092H/rQh9oRvPUpBAqB/UDAaZney3DGGWe0Uz/rUwgUAvuBwN4QBOe0O6rWMcM5jW4/IK5WFgLjRsDxyTfeeGN35ZVXTj2tbdzoVO8Lgd1FwKmdXmfgGPTzzjtvLUegb+RtjrsLYbWsECgEJhHIkdBOabv77ru7r33ta91HP/rRRhBylHYdEVx6UwiMD4EiCOOTefW4EHgcAQTgrrvu6ryV861vfWt35513NpJgedDLpr7zne90F1xwQXfuuee2d2rUpxAoBMaDQBGE8ci6eloI/BcClgO/9KUvddddd1134sSJ7uyzz+7uvffe7l//+ldbHjzrrLO6d77znfV2vdKdQmCECBRBGKHQq8uFQBCwvHD//fd3n/vc5xpJQAqQBpGF1772tW2pQTShXulcOlMIjA+BIgjjk3n1uBB4EgIPPfRQd+211zaS8Mtf/rJdO+2007pPfepT3Uc+8pH2d30KgUJgfAgUQRifzKvHhcCTEJD9/OCDD3af+cxnus9//vMtgnD++ed3n/3sZ9vyQuUelMIUAuNEoAjCOOVevS4EnoTAY4891rY3fvKTn+weeeSR7mMf+1h31VVXdaeffnohVQgUAiNFoAjCSAW/6W6blfqpz34gQFbOQLj66qs7eQmf/vSnu9e85jWVe7Af4nu8laecckrnpz6FwDoQKIKwDhSrjv+ajd53332dHzNTBmvfyEKM7BDtHgovfZWD8Mc//rF7/etf3z3jGc9YSLNXafeqeK/67GXlvCvt1g4nX9qSeuaZZy4ktypcCByFQBGE0o21I+C4XoftOLLXZ1UjuvYGzlHhkG1exdnN0bUji8g1uPDCC7vf/OY33T/+8Y+Fq1ql3aviveqz95UgEFKidYjd29/+9u69733vwrKrGwqBaQgUQSi9WDsC9tDfdttt3Rve8IY2C62Q59oh3liFtjnmZMWNPaQqXisCCIJDrW699dbu6U9/ehGEtaI77sqKIIxb/hvpPYLwrW99q53M98xnPrMIwkZQrkoLgf9DIAThG9/4RltmuOKKKwqaQmAtCBRBWAuMVUkfgSIIpQ+FwPYQKIKwPazH9qQiCGOT+Bb6WwRhCyDXIwqB/0egCEKpwqYQKIKwKWRHXG8RhBELv7q+dQSKIGwd8tE8sAjCaES9vY46ie+HP/xh97rXva4lTVWS4vawryeND4EQhG9+85vtXRrvfve7xwdC9XgjCBRB2Ais467UNsfbb7+9e+Mb31gEYUdUIVvh/M6WwBC3HK7jmh0M+X9y62Hq6N+ne0UAhxVyCMLJkydbkuLll18+bIPq6QeDQBGEgxHl7nSklhh2RxZakm2Lv//97zvk7dRTT23vXnjxi1/cPfWpT207TZ7ylKe0Nzg6TdHW1Oc973ltNpp7HXj16KOPtuuuebuj3xxSvelxWHnXEsOw+B/y04sgHLJ0B+pbEYSBgD/isZw8mfzgBz/ofvrTnzbH/vDDD7eXMFkGetWrXtVIwn/+85/uF7/4Rff3v/+9u/jii7unPe1pjUBYMvr1r3/dfv7617+20zHPPvvsdhTz85///CIIA4u7CMLAAjjgxxdBOGDhDtW1IghDIT/9uSIDnL4Iws9//vNGFjh+UQSHWb361a9u15Rxzc+zn/3sRgQQCFEHxOHuu+9uZOBvf/tbIwbudV2koT7DIVAEYTjsD/3JRRAOXcID9K8IwgCgH/NIBMHPj3/840YCnLonb8BSg+WE8847r919//33t2UE3yMCL3zhC9t1BOGOO+5oJMK1v/zlL92LXvSi7l3velf3rGc9qyIIA4u7CMLAAjjgxxdBOGDhDtW1IghDIT/9uZYY/v3vf7fTLZ3X728Rguc85znNuV900UUtCiALXl7CS17yku6uu+7qXv7yl3eveMUrGkGQdCpygDD4bZniHe94R1uGsFRRn+EQKIIwHPaH/uQiCIcu4QH6VwRhANBnRBAsFyAHXsTEwXvjn2iCXATb4kQFJCB6WZN8BEsK/nfNi5seeOCBFnn43ve+151//vmNXJx77rmNKBRBGFbeRRCGxf+Qn14E4ZClO1DfiiAMBPyUx2br4iOPPNL94Q9/aLkHHLolhj/96U8tgsDhu87pP/e5z221kKFXP1t+8DeSIFnxq1/9anfZZZe1JQZlLTHUNsdh5V0EYVj8D/npRRAOWboD9a0IwjDA55XF+Z3zDLLEYGnBwVXyEXIeQsiC7/rkwT12NVh6QCKUVwapeMELXtDK9l+RnGcN0/NxP7UIwrjlv8neF0HYJLojrbsIwjCCT7Qghx1x6M43yMFIlhmUQQpSpr8DwXVlEYLck57k3vyfetTlOX6nrj5BGQaJcT21CMK45L3N3hZB2CbaI3lWEYRhBM1RSCi0E4GztivhggsuaIcZ+diFwPHLG5BzIKLwspe9rJV1ryUISYhZZkgvyNMZCEhCyIXlBmchnHbaae1sBITDDgf1qNdHPYlQDIPIOJ5aBGEcch6il0UQhkD9wJ9ZBGEYAXPSSMB9993XnL4kRIcZyRfgROxEkIBo++I999zTrr/lLW9pZxogDjfffHPLQzjnnHMeP0HRcgIy8d3vfrc766yzHj8fwTOcn2DXw69+9atGEpAB5ER5JESCowhGJTFuVh+KIGwW3zHXXgRhzNLfUN+LIGwI2BnVmuH/5Cc/ac4aEeCs/X3ixIn2+84772x5BQjDb3/725Z4+La3va1tZbSscO211zaHjiBYNlDWYUh//vOfG3lQny2QyooWiE4o/+Uvf7kRB1sekRQ7I84444z2ToAscQyDyDieWgRhHHIeopdFEIZA/cCfWQRhGAEjCEiAEL9tjAiA8wze9773tVm9N2xKUuTkf/e737VyyICdCpyMl/1IPuTckQOk4s1vfnO796abbmr3uNcyhC2O7lX++uuvb/cjCa7ZSvnSl760HaRUpyxuXhdCEG655ZaG9xVXXLH5h9YTRoFAEYRRiHm7nbQ+7dx/B/DU6563g312Kjgt0ZkFZvNyAJA1cuDwkYfTTz+9++c//9nONFBGVODSSy9tZAERyBsb3SefwRs5H3rooe62225rOxgsHShjmeKSSy5p2xx/9KMftWvqkpMg+mBp45WvfGXlIGxB/CEI9brnLYA9skcUQRiZwLfRXQTBgTpe+GNGWfvkN4t6tiAiZWb9ZvVm8yIIiIDcATNLjpwDd+aB7zl3hyddeeWVjUBw7FkicEgSMuFFTpId1es7pMK95IogICHq8yyHK8lZEIHwW1nLEZWDsHn5k8mtt97aElLlftSnEFgHAkUQ1oFi1fEkBGqJYfsKgSTIFTCLl4Dob9EbOQSSEDl/jhx5QAo4FAmJyokSZKeDchz9vffe2xIYEQDRAbkE8hYQDPkNSAMSIKJg94P7RBo8U13K2OVQRzFvXhcqB2HzGI/1CUUQxir5Dfa7CMIGwT2m6jgKSwMIgKiBKEFm8DkcyXKCSIHZvbwFTj1l8mpoEYXcm5c7+c35q1eUSGTI3773ydkKeU4iCBVB2qw+FEHYLL5jrr0Iwpilv6G+F0HYELBzVMtJ+xx3smHyDFLdZNnJOvJ/yiMTk6co9pt23LU5ulBFFkSgCMKCgFXxuREogjA3VFVwXgSKIMyLVJUrBFZHoAjC6hhWDdMRKIJQmrF2BIogrB3SqrAQOBKBIgilHJtCoAjCppAdcb1FEEYs/Or61hEogrB1yEfzwCIIoxH19jpaBGF7WNeTCoEiCKUDm0KgCMKmkB1xvUUQRiz86vrWESiCsHXIR/PA/wVV1l8x950TjgAAAABJRU5ErkJggg==;" vertex="1" parent="1">
          <mxGeometry x="170" y="30" width="520" height="348" as="geometry" />
        </mxCell>
        <mxCell id="SeTrlBmMuoS_znbA5Kq0-5" value="" style="edgeStyle=orthogonalEdgeStyle;rounded=0;orthogonalLoop=1;jettySize=auto;html=1;" edge="1" parent="1" source="SeTrlBmMuoS_znbA5Kq0-2" target="SeTrlBmMuoS_znbA5Kq0-4">
          <mxGeometry relative="1" as="geometry" />
        </mxCell>
        <mxCell id="SeTrlBmMuoS_znbA5Kq0-2" value="第一章&lt;br&gt;&amp;nbsp; 绪论&lt;br&gt;研究背景及意义&amp;nbsp; &amp;nbsp;国内外研究现状&amp;nbsp; 研究内容及组织结构" style="rounded=0;whiteSpace=wrap;html=1;" vertex="1" parent="1">
          <mxGeometry x="840" y="40" width="330" height="80" as="geometry" />
        </mxCell>
        <mxCell id="SeTrlBmMuoS_znbA5Kq0-7" value="" style="edgeStyle=orthogonalEdgeStyle;rounded=0;orthogonalLoop=1;jettySize=auto;html=1;" edge="1" parent="1" source="SeTrlBmMuoS_znbA5Kq0-4" target="SeTrlBmMuoS_znbA5Kq0-6">
          <mxGeometry relative="1" as="geometry" />
        </mxCell>
        <mxCell id="SeTrlBmMuoS_znbA5Kq0-4" value="第二章&amp;nbsp;&lt;br&gt;&amp;nbsp;DRL概述&lt;br&gt;研究背景及意义&amp;nbsp; &amp;nbsp;国内外研究现状&amp;nbsp; 研究内容及组织结构" style="rounded=0;whiteSpace=wrap;html=1;" vertex="1" parent="1">
          <mxGeometry x="840" y="200" width="330" height="80" as="geometry" />
        </mxCell>
        <mxCell id="SeTrlBmMuoS_znbA5Kq0-11" value="" style="edgeStyle=orthogonalEdgeStyle;rounded=0;orthogonalLoop=1;jettySize=auto;html=1;" edge="1" parent="1" source="SeTrlBmMuoS_znbA5Kq0-6">
          <mxGeometry relative="1" as="geometry">
            <mxPoint x="1005" y="590" as="targetPoint" />
          </mxGeometry>
        </mxCell>
        <mxCell id="SeTrlBmMuoS_znbA5Kq0-6" value="" style="whiteSpace=wrap;html=1;rounded=0;" vertex="1" parent="1">
          <mxGeometry x="630" y="370" width="750" height="140" as="geometry" />
        </mxCell>
        <mxCell id="SeTrlBmMuoS_znbA5Kq0-8" value="第一章&lt;br&gt;&amp;nbsp; 绪论&lt;br&gt;研究背景及意义&amp;nbsp; &amp;nbsp;国内外研究现状&amp;nbsp; 研究内容及组织结构" style="rounded=0;whiteSpace=wrap;html=1;" vertex="1" parent="1">
          <mxGeometry x="650" y="390" width="330" height="80" as="geometry" />
        </mxCell>
        <mxCell id="SeTrlBmMuoS_znbA5Kq0-9" value="第一章&lt;br&gt;&amp;nbsp; 绪论&lt;br&gt;研究背景及意义&amp;nbsp; &amp;nbsp;国内外研究现状&amp;nbsp; 研究内容及组织结构" style="rounded=0;whiteSpace=wrap;html=1;" vertex="1" parent="1">
          <mxGeometry x="1030" y="390" width="330" height="80" as="geometry" />
        </mxCell>
        <mxCell id="SeTrlBmMuoS_znbA5Kq0-12" value="第六章&lt;br&gt;总结与展望" style="rounded=0;whiteSpace=wrap;html=1;" vertex="1" parent="1">
          <mxGeometry x="840" y="590" width="330" height="80" as="geometry" />
        </mxCell>
      </root>
    </mxGraphModel>
  </diagram>
</mxfile>
